<?xml version="1.0" encoding="UTF-8" standalone="no"?>
<!-- Created with Inkscape (http://www.inkscape.org/) -->

<svg
   xmlns:dc="http://purl.org/dc/elements/1.1/"
   xmlns:cc="http://creativecommons.org/ns#"
   xmlns:rdf="http://www.w3.org/1999/02/22-rdf-syntax-ns#"
   xmlns:svg="http://www.w3.org/2000/svg"
   xmlns="http://www.w3.org/2000/svg"
   xmlns:sodipodi="http://sodipodi.sourceforge.net/DTD/sodipodi-0.dtd"
   xmlns:inkscape="http://www.inkscape.org/namespaces/inkscape"
   id="svg4195"
   style="fill-rule:evenodd"
   sodipodi:docname="logo.svg"
   xml:space="preserve"
   version="1.1"
   inkscape:version="0.92.4 (5da689c313, 2019-01-14)"
   viewBox="0 0 353.28177 255.0499"
   width="103.85829mm"
   height="74.979942mm"
   inkscape:export-filename="C:\Users\parashar\Desktop\scarf\docs\source\logo.png"
   inkscape:export-xdpi="199.86678"
   inkscape:export-ydpi="199.86678"><sodipodi:namedview
   id="namedview607"
   bordercolor="#666666"
   inkscape:pageshadow="2"
   guidetolerance="10"
   pagecolor="#ffffff"
   gridtolerance="10"
   inkscape:window-maximized="1"
   inkscape:zoom="1.28"
   objecttolerance="10"
   borderopacity="1"
   inkscape:current-layer="g1547"
   inkscape:cx="106.01609"
   inkscape:cy="134.85203"
   inkscape:window-y="-11"
   inkscape:window-x="3009"
   inkscape:window-width="1780"
   showgrid="false"
   inkscape:pageopacity="0"
   inkscape:window-height="1046"
   units="mm"
   inkscape:lockguides="true"
   fit-margin-top="0"
   fit-margin-right="0"
   fit-margin-left="0"
   fit-margin-bottom="0"
   scale-x="0.9" />
 <defs
   id="defs4197">
  <style
   id="style4199"
   type="text/css" />
 <clipPath
   clipPathUnits="userSpaceOnUse"
   id="clipPath3820"><circle
     style="opacity:1;vector-effect:none;fill:none;fill-opacity:1;stroke:#000000;stroke-width:101.10653687;stroke-linecap:butt;stroke-linejoin:round;stroke-miterlimit:4;stroke-dasharray:none;stroke-dashoffset:0;stroke-opacity:0.92682926"
     id="circle3822"
     cx="8973.5625"
     cy="15221.962"
     r="5583.7539" /></clipPath><clipPath
   clipPathUnits="userSpaceOnUse"
   id="clipPath5028"><ellipse
     ry="594.13135"
     rx="583.10608"
     cy="15361.078"
     cx="9539.4512"
     id="ellipse5030"
     style="opacity:1;vector-effect:none;fill:none;fill-opacity:1;stroke:#000000;stroke-width:14.80000019;stroke-linecap:butt;stroke-linejoin:round;stroke-miterlimit:4;stroke-dasharray:none;stroke-dashoffset:0;stroke-opacity:0.92682926" /></clipPath><clipPath
   clipPathUnits="userSpaceOnUse"
   id="clipPath5032"><ellipse
     ry="4058.8218"
     rx="3983.5024"
     cy="20113.451"
     cx="15019.229"
     id="ellipse5034"
     style="opacity:1;vector-effect:none;fill:none;fill-opacity:1;stroke:#000000;stroke-width:101.10653687;stroke-linecap:butt;stroke-linejoin:round;stroke-miterlimit:4;stroke-dasharray:none;stroke-dashoffset:0;stroke-opacity:0.92682926" /></clipPath><clipPath
   clipPathUnits="userSpaceOnUse"
   id="clipPath12250"><ellipse
     ry="2832.5"
     rx="2868.9001"
     cy="22046"
     cx="5014.6914"
     id="ellipse12252"
     style="opacity:1;vector-effect:none;fill:none;fill-opacity:1;stroke:#000000;stroke-width:101.10653687;stroke-linecap:butt;stroke-linejoin:round;stroke-miterlimit:4;stroke-dasharray:none;stroke-dashoffset:0;stroke-opacity:0.92682926" /></clipPath><clipPath
   clipPathUnits="userSpaceOnUse"
   id="clipPath8437"><text
   id="text8441"
   y="16142.147"
   x="2665.4458"
   style="font-style:normal;font-weight:normal;font-size:14.04581451px;line-height:1.25;font-family:sans-serif;letter-spacing:0px;word-spacing:0px;fill:#000000;fill-opacity:1;stroke:none;stroke-width:0.7524544"
   xml:space="preserve"><tspan
     style="font-style:normal;font-variant:normal;font-weight:normal;font-stretch:normal;font-size:1003.27246094px;line-height:3.25;font-family:'Century Schoolbook';-inkscape-font-specification:'Century Schoolbook';letter-spacing:0px;word-spacing:0.7524544px;stroke-width:0.7524544"
     y="16142.147"
     x="2665.4458"
     id="tspan8439"
     sodipodi:role="line">S</tspan></text>














</clipPath><clipPath
   clipPathUnits="userSpaceOnUse"
   id="clipPath8443"><text
   xml:space="preserve"
   style="font-style:normal;font-weight:normal;font-size:14.04581451px;line-height:1.25;font-family:sans-serif;letter-spacing:0px;word-spacing:0px;fill:#000000;fill-opacity:1;stroke:none;stroke-width:0.7524544"
   x="2771.3943"
   y="16036.199"
   id="text8447"><tspan
     sodipodi:role="line"
     id="tspan8445"
     x="2771.3943"
     y="16036.199"
     style="font-style:normal;font-variant:normal;font-weight:normal;font-stretch:normal;font-size:1003.27246094px;line-height:3.25;font-family:'Century Schoolbook';-inkscape-font-specification:'Century Schoolbook';letter-spacing:0px;word-spacing:0.7524544px;stroke-width:0.7524544">c</tspan></text>














</clipPath><clipPath
   clipPathUnits="userSpaceOnUse"
   id="clipPath8449"><text
   id="text8453"
   y="15959.682"
   x="2965.6333"
   style="font-style:normal;font-weight:normal;font-size:14.04581451px;line-height:1.25;font-family:sans-serif;letter-spacing:0px;word-spacing:0px;fill:#000000;fill-opacity:1;stroke:none;stroke-width:0.7524544"
   xml:space="preserve"><tspan
     style="font-style:normal;font-variant:normal;font-weight:normal;font-stretch:normal;font-size:1003.27246094px;line-height:3.25;font-family:'Century Schoolbook';-inkscape-font-specification:'Century Schoolbook';letter-spacing:0px;word-spacing:0.7524544px;stroke-width:0.7524544"
     y="15959.682"
     x="2965.6333"
     id="tspan8451"
     sodipodi:role="line">a</tspan></text>














</clipPath><clipPath
   clipPathUnits="userSpaceOnUse"
   id="clipPath8455"><text
   xml:space="preserve"
   style="font-style:normal;font-weight:normal;font-size:14.04581451px;line-height:1.25;font-family:sans-serif;letter-spacing:0px;word-spacing:0px;fill:#000000;fill-opacity:1;stroke:none;stroke-width:0.7524544"
   x="2812.5964"
   y="16065.63"
   id="text8459"><tspan
     sodipodi:role="line"
     id="tspan8457"
     x="2812.5964"
     y="16065.63"
     style="font-style:normal;font-variant:normal;font-weight:normal;font-stretch:normal;font-size:1003.27246094px;line-height:3.25;font-family:'Century Schoolbook';-inkscape-font-specification:'Century Schoolbook';letter-spacing:0px;word-spacing:0.7524544px;stroke-width:0.7524544">r</tspan></text>














</clipPath><clipPath
   clipPathUnits="userSpaceOnUse"
   id="clipPath8461"><text
   id="text8465"
   y="16148.034"
   x="2842.0269"
   style="font-style:normal;font-weight:normal;font-size:14.04581451px;line-height:1.25;font-family:sans-serif;letter-spacing:0px;word-spacing:0px;fill:#000000;fill-opacity:1;stroke:none;stroke-width:0.7524544"
   xml:space="preserve"><tspan
     style="font-style:normal;font-variant:normal;font-weight:normal;font-stretch:normal;font-size:1003.27246094px;line-height:3.25;font-family:'Century Schoolbook';-inkscape-font-specification:'Century Schoolbook';letter-spacing:0px;word-spacing:0.7524544px;stroke-width:0.7524544"
     y="16148.034"
     x="2842.0269"
     id="tspan8463"
     sodipodi:role="line">f</tspan></text>














</clipPath><clipPath
   clipPathUnits="userSpaceOnUse"
   id="clipPath10888"><path
     style="opacity:1;vector-effect:none;fill:none;fill-opacity:1;stroke:#bbd0ff;stroke-width:14.75777912;stroke-linecap:butt;stroke-linejoin:round;stroke-miterlimit:4;stroke-dasharray:none;stroke-dashoffset:0;stroke-opacity:1"
     d="m 8738.479,-12888.621 a 548.69312,550.59772 0 0 0 -548.7001,550.593 548.69312,550.59772 0 0 0 548.7001,550.593 548.69312,550.59772 0 0 0 414.4324,-190.25 432.57092,441.54172 0 0 1 -183.0691,-360.343 432.57092,441.54172 0 0 1 182.9715,-359.933 548.69312,550.59772 0 0 0 -414.3348,-190.66 z"
     id="path10890"
     inkscape:connector-curvature="0" /></clipPath><clipPath
   clipPathUnits="userSpaceOnUse"
   id="clipPath10893"><path
     style="opacity:1;vector-effect:none;fill:none;fill-opacity:1;stroke:#ffd6ff;stroke-width:11.73420238;stroke-linecap:butt;stroke-linejoin:round;stroke-miterlimit:4;stroke-dasharray:none;stroke-dashoffset:0;stroke-opacity:1"
     d="m 9838.2103,-12671.219 a 432.57092,441.54172 0 0 0 -432.5598,441.536 432.57092,441.54172 0 0 0 432.5598,441.555 432.57092,441.54172 0 0 0 365.7677,-206.796 315.41187,310.18091 0 0 1 -109.506,-234.759 315.41187,310.18091 0 0 1 109.877,-234.759 432.57092,441.54172 0 0 0 -366.1387,-206.777 z"
     id="path10895"
     inkscape:connector-curvature="0" /></clipPath><clipPath
   clipPathUnits="userSpaceOnUse"
   id="clipPath10888-4"><path
     style="opacity:1;vector-effect:none;fill:none;fill-opacity:1;stroke:#bbd0ff;stroke-width:14.75777912;stroke-linecap:butt;stroke-linejoin:round;stroke-miterlimit:4;stroke-dasharray:none;stroke-dashoffset:0;stroke-opacity:1"
     d="m 8738.479,-12888.621 a 548.69312,550.59772 0 0 0 -548.7001,550.593 548.69312,550.59772 0 0 0 548.7001,550.593 548.69312,550.59772 0 0 0 414.4324,-190.25 432.57092,441.54172 0 0 1 -183.0691,-360.343 432.57092,441.54172 0 0 1 182.9715,-359.933 548.69312,550.59772 0 0 0 -414.3348,-190.66 z"
     id="path10890-0"
     inkscape:connector-curvature="0" /></clipPath><clipPath
   clipPathUnits="userSpaceOnUse"
   id="clipPath10893-1"><path
     style="opacity:1;vector-effect:none;fill:none;fill-opacity:1;stroke:#ffd6ff;stroke-width:11.73420238;stroke-linecap:butt;stroke-linejoin:round;stroke-miterlimit:4;stroke-dasharray:none;stroke-dashoffset:0;stroke-opacity:1"
     d="m 9838.2103,-12671.219 a 432.57092,441.54172 0 0 0 -432.5598,441.536 432.57092,441.54172 0 0 0 432.5598,441.555 432.57092,441.54172 0 0 0 365.7677,-206.796 315.41187,310.18091 0 0 1 -109.506,-234.759 315.41187,310.18091 0 0 1 109.877,-234.759 432.57092,441.54172 0 0 0 -366.1387,-206.777 z"
     id="path10895-0"
     inkscape:connector-curvature="0" /></clipPath>









































</defs>
 
<metadata
   id="metadata604"><rdf:RDF><cc:Work><dc:format>image/svg+xml</dc:format><dc:type
         rdf:resource="http://purl.org/dc/dcmitype/StillImage" /><cc:license
         rdf:resource="http://creativecommons.org/publicdomain/zero/1.0/" /><dc:publisher><cc:Agent
           rdf:about="http://openclipart.org/"><dc:title>Openclipart</dc:title></cc:Agent></dc:publisher><dc:title></dc:title><dc:date>2013-02-04T15:56:25</dc:date><dc:description>Voronoi mathematical diagram with 3 attractor points</dc:description><dc:source>https://openclipart.org/detail/174821/voronoi-diagram-with-3-attractor-points-by-craftsmanspace-174821</dc:source><dc:creator><cc:Agent><dc:title>Craftsmanspace</dc:title></cc:Agent></dc:creator><dc:subject><rdf:Bag><rdf:li>Voronoi</rdf:li><rdf:li>attractor points</rdf:li><rdf:li>diagram</rdf:li></rdf:Bag></dc:subject></cc:Work><cc:License
       rdf:about="http://creativecommons.org/publicdomain/zero/1.0/"><cc:permits
         rdf:resource="http://creativecommons.org/ns#Reproduction" /><cc:permits
         rdf:resource="http://creativecommons.org/ns#Distribution" /><cc:permits
         rdf:resource="http://creativecommons.org/ns#DerivativeWorks" /></cc:License></rdf:RDF></metadata>
<path
   style="opacity:1;vector-effect:none;fill:#ffd6ff;fill-opacity:1;stroke:none;stroke-width:12.62656307;stroke-linecap:butt;stroke-linejoin:round;stroke-miterlimit:4;stroke-dasharray:none;stroke-dashoffset:0;stroke-opacity:1"
   d=""
   id="path5650"
   inkscape:connector-curvature="0" /><path
   style="opacity:1;vector-effect:none;fill:#bbd0ff;fill-opacity:0;stroke:none;stroke-width:6.31328154;stroke-linecap:butt;stroke-linejoin:round;stroke-miterlimit:4;stroke-dasharray:none;stroke-dashoffset:0;stroke-opacity:1"
   d=""
   id="path5852"
   inkscape:connector-curvature="0" /><path
   style="opacity:1;vector-effect:none;fill:#000000;fill-opacity:1;stroke:none;stroke-width:6.31328154;stroke-linecap:butt;stroke-linejoin:round;stroke-miterlimit:4;stroke-dasharray:none;stroke-dashoffset:0;stroke-opacity:1"
   d=""
   id="path5888"
   inkscape:connector-curvature="0" /><path
   style="opacity:1;vector-effect:none;fill:#ffc2c1;fill-opacity:1;stroke:none;stroke-width:8.92832851;stroke-linecap:butt;stroke-linejoin:round;stroke-miterlimit:4;stroke-dasharray:none;stroke-dashoffset:0;stroke-opacity:1"
   d=""
   id="path5954"
   inkscape:connector-curvature="0" /><g
   id="g6336"
   transform="matrix(0.10009453,0,0,0.10009453,-72.913828,959.98606)"><g
     id="g13495"
     transform="matrix(4.7177841,0,0,4.7177841,10975.735,-10198.727)"><g
       id="g13493"
       transform="matrix(0.1,0,0,-0.1,0,511)"><g
         id="g13491"
         transform="matrix(0.33922275,0,0,0.26026685,1188.7503,-1730.3606)"><g
           inkscape:export-ydpi="300"
           inkscape:export-xdpi="300"
           transform="translate(1024.1792,-1398.4452)"
           id="g13489" /></g></g></g><g
     id="g1128"><g
   id="g1123"><g
   id="g1126"><g
     id="g1264"
     inkscape:export-xdpi="200.15692"
     inkscape:export-ydpi="200.15692"><g
   id="g1127"
   transform="matrix(1.022476,0,0,1.022476,893.48166,438.58941)"><g
     id="g1142"
     inkscape:export-xdpi="200"
     inkscape:export-ydpi="200"><g
       id="g1547"><g
   id="g12367"
   transform="matrix(1.1923549,0.18707611,-0.18707611,1.1923549,-12692.912,3560.7847)"><g
     id="g4865"><g
       style="fill-rule:evenodd"
       transform="translate(712.81446,236.24421)"
       id="g12249"
       clip-path="url(#clipPath10888)"><g
         transform="translate(5725.881,-28150.657)"
         id="g12247"><path
           style="opacity:1;vector-effect:none;fill:#ffd6ff;fill-opacity:0;stroke:none;stroke-width:37.87969208;stroke-linecap:butt;stroke-linejoin:round;stroke-miterlimit:4;stroke-dasharray:none;stroke-dashoffset:0;stroke-opacity:1"
           d="m 2890.6892,15729.924 c -49.6106,-24.131 -90.4334,-43.933 -90.7173,-44.005 -0.284,-0.07 -1.0357,-5.24 -1.6704,-11.484 l -1.1541,-11.355 76.8379,-44.56 c 42.2608,-24.508 79.2286,-44.58 82.1506,-44.604 7.6695,-0.06 42.9449,18.456 55.6238,29.202 l 10.8248,9.174 -4.2071,63.76 -4.2071,63.76 -14.4456,17.254 c -7.945,9.489 -15.433,17.136 -16.64,16.993 -1.207,-0.143 -42.785,-20.004 -92.3955,-44.135 z"
           id="path12113"
           inkscape:connector-curvature="0" /><path
           style="opacity:1;vector-effect:none;fill:#ffd6ff;fill-opacity:0;stroke:none;stroke-width:3.77952766;stroke-linecap:butt;stroke-linejoin:round;stroke-miterlimit:4;stroke-dasharray:none;stroke-dashoffset:0;stroke-opacity:1"
           d="m 2890.6892,15729.924 c -49.6106,-24.131 -90.4334,-43.933 -90.7173,-44.005 -0.284,-0.07 -1.0357,-5.24 -1.6704,-11.484 l -1.1541,-11.355 76.8379,-44.56 c 42.2608,-24.508 79.2286,-44.58 82.1506,-44.604 7.6695,-0.06 42.9449,18.456 55.6238,29.202 l 10.8248,9.174 -4.2071,63.76 -4.2071,63.76 -14.4456,17.254 c -7.945,9.489 -15.433,17.136 -16.64,16.993 -1.207,-0.143 -42.785,-20.004 -92.3955,-44.135 z"
           id="path12115"
           inkscape:connector-curvature="0" /><path
           style="opacity:1;vector-effect:none;fill:#bbd0ff;fill-opacity:0;stroke:none;stroke-width:8.92832851;stroke-linecap:butt;stroke-linejoin:round;stroke-miterlimit:4;stroke-dasharray:none;stroke-dashoffset:0;stroke-opacity:1"
           d="m 2809.9946,15963.249 c -1.8023,-6.171 -14.2716,-51.422 -27.7097,-100.558 l -24.4328,-89.337 18.5144,-37.261 18.5144,-37.261 90.3109,43.603 90.3108,43.603 -22.3264,54.648 c -12.2796,30.056 -27.2005,66.872 -33.1577,81.814 -5.9572,14.941 -11.1198,27.536 -11.4725,27.988 -0.6547,0.839 -90.5399,23.813 -93.5944,23.922 -0.9242,0.03 -3.1548,-4.99 -4.957,-11.161 z"
           id="path12117"
           inkscape:connector-curvature="0" /><path
           style="opacity:1;vector-effect:none;fill:#bbd0ff;fill-opacity:1;stroke:none;stroke-width:8.92832851;stroke-linecap:butt;stroke-linejoin:round;stroke-miterlimit:4;stroke-dasharray:none;stroke-dashoffset:0;stroke-opacity:1"
           d="m 2809.9946,15963.249 c -1.8023,-6.171 -14.2716,-51.422 -27.7097,-100.558 l -24.4328,-89.337 18.5144,-37.261 18.5144,-37.261 90.3109,43.603 90.3108,43.603 -22.3264,54.648 c -12.2796,30.056 -27.2005,66.872 -33.1577,81.814 -5.9572,14.941 -11.1198,27.536 -11.4725,27.988 -0.6547,0.839 -90.5399,23.813 -93.5944,23.922 -0.9242,0.03 -3.1548,-4.99 -4.957,-11.161 z"
           id="path12119"
           inkscape:connector-curvature="0" /><path
           style="opacity:1;vector-effect:none;fill:#bbd0ff;fill-opacity:1;stroke:none;stroke-width:6.31328154;stroke-linecap:butt;stroke-linejoin:round;stroke-miterlimit:4;stroke-dasharray:none;stroke-dashoffset:0;stroke-opacity:1"
           d="m 2935.2324,16214.435 c -9.6465,-13.303 -18.3935,-26.167 -19.4377,-28.586 -1.0443,-2.419 -2.4495,-13.717 -3.1227,-25.107 -1.165,-19.714 -1.0738,-20.671 1.8987,-19.917 1.7175,0.436 27.3637,4.87 56.9916,9.852 29.628,4.983 53.8658,9.435 53.8618,9.894 -0.01,0.755 -9.7056,11.207 -57.5313,61.994 l -15.1213,16.057 z"
           id="path12121"
           inkscape:connector-curvature="0" /><path
           style="opacity:1;vector-effect:none;fill:#bbd0ff;fill-opacity:1;stroke:none;stroke-width:6.31328154;stroke-linecap:butt;stroke-linejoin:round;stroke-miterlimit:4;stroke-dasharray:none;stroke-dashoffset:0;stroke-opacity:1"
           d="m 3214.1874,15822.455 c -28.0208,-1.014 -51.7971,-2.388 -52.8363,-3.054 -1.0393,-0.666 -2.4262,-6.938 -3.0821,-13.938 -1.0396,-11.094 0.1646,-21.279 9.3834,-79.368 5.8168,-36.652 11.0345,-66.64 11.5947,-66.64 0.8975,0 107.7033,138.127 110.6493,143.098 0.6358,1.073 -1.6689,6.514 -5.1215,12.092 -6.0641,9.797 -6.5046,10.133 -12.9591,9.897 -3.6748,-0.134 -29.6076,-1.073 -57.6284,-2.087 z"
           id="path12123"
           inkscape:connector-curvature="0" /><path
           style="opacity:1;vector-effect:none;fill:#bbd0ff;fill-opacity:1;stroke:none;stroke-width:6.31328154;stroke-linecap:butt;stroke-linejoin:round;stroke-miterlimit:4;stroke-dasharray:none;stroke-dashoffset:0;stroke-opacity:1"
           d="m 2984.0913,15569.621 c -3.9045,-1.501 -7.0991,-3.283 -7.0991,-3.961 0,-1.528 116.9499,-108.856 117.7471,-108.059 0.3172,0.317 -2.5714,13.706 -6.419,29.754 l -6.9958,29.177 -44.7794,28.031 c -24.6287,15.417 -44.9088,27.976 -45.067,27.908 -0.1582,-0.07 -3.4823,-1.35 -7.3868,-2.85 z"
           id="path12125"
           inkscape:connector-curvature="0" /><path
           style="opacity:1;vector-effect:none;fill:#bbd0ff;fill-opacity:1;stroke:none;stroke-width:6.31328154;stroke-linecap:butt;stroke-linejoin:round;stroke-miterlimit:4;stroke-dasharray:none;stroke-dashoffset:0;stroke-opacity:1"
           d="m 2957.5219,15535.58 c 0.6028,-13.926 1.096,-32.648 1.096,-41.604 v -16.283 l 37.1238,-32.728 c 31.0825,-27.402 37.961,-32.728 42.2679,-32.728 4.621,0 54.9184,20.075 58.0109,23.154 1.5957,1.588 -133.8088,125.511 -137.1404,125.511 -2.099,0 -2.2956,-3.666 -1.3582,-25.322 z"
           id="path12127"
           inkscape:connector-curvature="0" /><path
           style="opacity:1;vector-effect:none;fill:#bbd0ff;fill-opacity:1;stroke:none;stroke-width:6.31328154;stroke-linecap:butt;stroke-linejoin:round;stroke-miterlimit:4;stroke-dasharray:none;stroke-dashoffset:0;stroke-opacity:1"
           d="m 2631.628,15549.405 -80.6074,-12.841 7.2022,-11.634 c 35.6807,-57.637 92.5402,-116.572 150.1667,-155.649 l 16.1987,-10.985 21.385,12.774 c 11.7618,7.026 22.3015,13.367 23.4214,14.092 2.0601,1.333 1.0563,4.632 -40.6343,133.562 -7.7982,24.117 -14.7065,43.775 -15.3517,43.686 -0.6452,-0.09 -37.4465,-5.942 -81.7806,-13.005 z"
           id="path12129"
           inkscape:connector-curvature="0" /><path
           style="opacity:1;vector-effect:none;fill:#bbd0ff;fill-opacity:1;stroke:none;stroke-width:6.31328154;stroke-linecap:butt;stroke-linejoin:round;stroke-miterlimit:4;stroke-dasharray:none;stroke-dashoffset:0;stroke-opacity:1"
           d="m 3226.6263,16287.074 -15.1225,-5.053 -5.7855,-11.031 c -3.182,-6.067 -13.4679,-25.763 -22.8574,-43.77 l -17.0719,-32.74 17.6178,-20.295 c 9.6898,-11.162 18.1375,-20.295 18.7727,-20.295 0.6351,0 36.0224,3.382 78.6383,7.517 42.6159,4.134 78.3226,7.516 79.3482,7.516 1.0256,0 8.1116,3.855 15.7465,8.566 l 13.8818,8.565 -4.7016,5.01 c -9.6973,10.333 -36.8752,33.742 -54.7153,47.128 -22.9588,17.227 -46.344,32.009 -70.2427,44.401 l -18.3859,9.534 z"
           id="path12131"
           inkscape:connector-curvature="0" /><path
           style="opacity:1;vector-effect:none;fill:#bbd0ff;fill-opacity:1;stroke:none;stroke-width:6.31328154;stroke-linecap:butt;stroke-linejoin:round;stroke-miterlimit:4;stroke-dasharray:none;stroke-dashoffset:0;stroke-opacity:1"
           d="m 3316.9163,15956.785 c -36.0791,-27.073 -41.6893,-31.874 -41.2422,-35.295 0.2846,-2.178 3.6671,-16.772 7.5167,-32.431 l 6.9993,-28.47 57.6271,38.906 c 31.6948,21.399 57.818,39.479 58.0514,40.18 0.2334,0.7 -10.2894,11.886 -23.3841,24.858 l -23.8084,23.586 z"
           id="path12133"
           inkscape:connector-curvature="0" /><path
           style="opacity:1;vector-effect:none;fill:#bbd0ff;fill-opacity:1;stroke:none;stroke-width:6.31328154;stroke-linecap:butt;stroke-linejoin:round;stroke-miterlimit:4;stroke-dasharray:none;stroke-dashoffset:0;stroke-opacity:1"
           d="m 3502.4754,15702.345 -33.1557,-15.4 -44.7537,-77.139 -44.7538,-77.139 14.8164,-35.148 c 8.149,-19.332 15.4753,-36.326 16.2806,-37.765 1.1581,-2.07 4.3517,0.983 15.2779,14.605 45.1906,56.339 80.3238,124.633 99.4566,193.329 4.8253,17.325 11.5388,48.507 10.6377,49.408 -0.3577,0.357 -15.5703,-6.28 -33.806,-14.751 z"
           id="path12135"
           inkscape:connector-curvature="0" /><path
           style="opacity:1;vector-effect:none;fill:#bbd0ff;fill-opacity:1;stroke:none;stroke-width:6.31328154;stroke-linecap:butt;stroke-linejoin:round;stroke-miterlimit:4;stroke-dasharray:none;stroke-dashoffset:0;stroke-opacity:1"
           d="m 2564.5057,16105.006 c -31.0685,-46.913 -54.6067,-98.711 -69.546,-153.041 -6.3854,-23.221 -13.2161,-57.061 -14.9857,-74.238 l -1.1751,-11.406 4.1402,0.548 c 5.0467,0.669 180.6586,164.431 179.4501,167.341 -1.3392,3.226 -38.3409,80.384 -38.8609,81.036 -0.5178,0.649 -42.0961,8.547 -44.9239,8.534 -0.9188,0 -7.2632,-8.453 -14.0987,-18.774 z"
           id="path12137"
           inkscape:connector-curvature="0" /><path
           style="opacity:1;vector-effect:none;fill:#bbd0ff;fill-opacity:1;stroke:none;stroke-width:6.31328154;stroke-linecap:butt;stroke-linejoin:round;stroke-miterlimit:4;stroke-dasharray:none;stroke-dashoffset:0;stroke-opacity:1"
           d="m 2828.3275,15355.676 -5.8463,-1.067 0.5949,-14.574 c 0.3272,-8.016 1.0788,-18.473 1.6704,-23.238 l 1.0754,-8.665 16.7039,-5.614 c 23.3461,-7.847 59.5465,-16.569 85.1899,-20.526 28.5432,-4.404 29.6085,-4.365 32.8723,1.208 2.6751,4.567 2.6112,4.708 -11.2413,24.755 l -13.9317,20.161 -48.115,13.907 c -55.0663,15.916 -51.3223,15.05 -58.9725,13.653 z"
           id="path12139"
           inkscape:connector-curvature="0" /><path
           style="opacity:1;vector-effect:none;fill:#bbd0ff;fill-opacity:1;stroke:none;stroke-width:6.31328154;stroke-linecap:butt;stroke-linejoin:round;stroke-miterlimit:4;stroke-dasharray:none;stroke-dashoffset:0;stroke-opacity:1"
           d="m 2891.9407,15731.116 c -50.9125,-24.715 -92.9169,-45.285 -93.343,-45.711 -0.4261,-0.427 -1.0948,-5.876 -1.4861,-12.11 l -0.7113,-11.335 77.9526,-44.834 c 68.8166,-39.58 78.5672,-44.716 83.1968,-43.823 10.9495,2.112 34.2508,14.134 49.8458,25.718 l 16.205,12.036 -0.7997,7.913 c -0.9875,9.771 -7.3897,110.437 -7.3897,116.194 0,2.785 -5.0425,10.346 -15.1358,22.697 -8.3246,10.186 -15.2776,18.447 -15.4511,18.356 -0.1734,-0.09 -41.971,-20.386 -92.8835,-45.101 z"
           id="path12141"
           inkscape:connector-curvature="0" /><path
           style="opacity:1;vector-effect:none;fill:#bbd0ff;fill-opacity:1;stroke:none;stroke-width:6.31328154;stroke-linecap:butt;stroke-linejoin:round;stroke-miterlimit:4;stroke-dasharray:none;stroke-dashoffset:0;stroke-opacity:1"
           d="m 3008.5792,16034.152 c -4.8969,-12.639 -19.7835,-54.634 -19.4449,-54.854 0.2122,-0.139 14.1144,-7.501 30.8937,-16.362 l 30.508,-16.11 8.8106,3.296 c 8.04,3.009 9.7418,4.649 19.4583,18.76 l 10.6478,15.463 -3,20.88 c -1.6499,11.484 -3.3039,21.683 -3.6754,22.665 -0.3768,0.996 -15.2384,3.454 -33.6033,5.559 -18.1102,2.076 -34.2425,4.142 -35.8496,4.591 -2.0523,0.574 -3.4645,-0.583 -4.7452,-3.888 z"
           id="path12143"
           inkscape:connector-curvature="0" /><path
           style="opacity:1;vector-effect:none;fill:#bbd0ff;fill-opacity:1;stroke:none;stroke-width:6.31328154;stroke-linecap:butt;stroke-linejoin:round;stroke-miterlimit:4;stroke-dasharray:none;stroke-dashoffset:0;stroke-opacity:1"
           d="m 3137.0612,16184.792 c -14.7718,-1.893 -16.8125,-2.607 -23.803,-8.335 -4.2054,-3.446 -7.7123,-6.363 -7.7932,-6.482 -0.081,-0.119 -1.1115,-19.76 -2.2901,-43.647 -2.0449,-41.44 -1.9982,-43.821 1.0192,-51.977 3.064,-8.282 3.402,-8.581 10.8753,-9.605 4.2421,-0.581 14.7348,-1.057 23.3172,-1.057 h 15.6044 l 12.21,15.451 c 6.7155,8.498 15.7635,20.026 20.1067,25.617 l 7.8967,10.165 -1.1242,14.626 -1.1242,14.625 -18.4311,21.562 c -10.1372,11.86 -18.8532,21.465 -19.3689,21.345 -0.5158,-0.12 -8.2084,-1.149 -17.0948,-2.288 z"
           id="path12145"
           inkscape:connector-curvature="0" /><path
           style="opacity:1;vector-effect:none;fill:#bbd0ff;fill-opacity:1;stroke:none;stroke-width:6.31328154;stroke-linecap:butt;stroke-linejoin:round;stroke-miterlimit:4;stroke-dasharray:none;stroke-dashoffset:0;stroke-opacity:1"
           d="m 2796.5901,16300.254 c -38.0426,-17.12 -66.5242,-33.286 -67.5747,-38.356 -3.0836,-14.881 -5.8441,-36.903 -4.7489,-37.886 0.7326,-0.657 6.5576,-2.756 12.9443,-4.664 l 11.6121,-3.469 31.6644,13.934 31.6644,13.935 10.5616,20.634 c 5.8089,11.348 10.576,21.256 10.5935,22.017 0.048,2.098 -17.2654,21.096 -19.1776,21.043 -0.9187,-0.03 -8.8113,-3.26 -17.5391,-7.188 z"
           id="path12147"
           inkscape:connector-curvature="0" /><path
           style="opacity:1;vector-effect:none;fill:#bbd0ff;fill-opacity:1;stroke:none;stroke-width:6.31328154;stroke-linecap:butt;stroke-linejoin:round;stroke-miterlimit:4;stroke-dasharray:none;stroke-dashoffset:0;stroke-opacity:1"
           d="m 2921.7622,16337.619 c -14.6761,-2.485 -26.6191,-5.242 -26.6191,-6.145 0,-0.501 2.6549,-4.527 5.8998,-8.948 3.8179,-5.201 7.502,-8.342 10.4399,-8.902 12.9805,-2.472 29.066,-4.64 29.7032,-4.002 0.3984,0.398 -0.4842,7.239 -1.9614,15.202 -2.9866,16.101 -2.0387,15.407 -17.4624,12.795 z"
           id="path12149"
           inkscape:connector-curvature="0" /><path
           style="opacity:1;vector-effect:none;fill:#bbd0ff;fill-opacity:1;stroke:none;stroke-width:6.31328154;stroke-linecap:butt;stroke-linejoin:round;stroke-miterlimit:4;stroke-dasharray:none;stroke-dashoffset:0;stroke-opacity:1"
           d="m 3172.187,15339.216 c -1.3945,-1.64 -7.6858,-10.498 -13.9806,-19.686 -6.2949,-9.187 -13.3656,-19.263 -15.7127,-22.393 l -4.2675,-5.689 6.1529,1.155 c 15.4526,2.899 78.1669,24.941 78.1549,27.469 0,0.884 -34.9669,17.198 -45.6056,21.28 -1.2133,0.466 -3.3469,-0.495 -4.7414,-2.136 z"
           id="path12151"
           inkscape:connector-curvature="0" /><path
           style="opacity:1;vector-effect:none;fill:#9bb9ff;fill-opacity:1;stroke:none;stroke-width:6.31328154;stroke-linecap:butt;stroke-linejoin:round;stroke-miterlimit:4;stroke-dasharray:none;stroke-dashoffset:0;stroke-opacity:1"
           d="m 3018.4519,15287.403 c -24.2405,-6.128 -29.3539,-7.93 -28.5386,-10.055 0.8686,-2.263 4.8885,-2.453 32.0374,-1.51 17.0743,0.593 35.3851,1.565 40.6908,2.161 l 9.6466,1.083 -7.9762,5.334 c -17.3485,11.6 -12.9326,11.312 -45.86,2.987 z"
           id="path12153"
           inkscape:connector-curvature="0" /><path
           style="opacity:1;vector-effect:none;fill:#9bb9ff;fill-opacity:1;stroke:none;stroke-width:6.31328154;stroke-linecap:butt;stroke-linejoin:round;stroke-miterlimit:4;stroke-dasharray:none;stroke-dashoffset:0;stroke-opacity:1"
           d="m 2766.5231,15619.63 c -13.3213,-17.063 -27.7826,-35.626 -32.1361,-41.252 l -7.9155,-10.228 29.0498,-90.067 29.0497,-90.067 15.9092,-10.613 c 15.6321,-10.429 16.055,-10.594 24.2767,-9.463 8.2897,1.14 8.8895,1.656 64.4327,55.409 l 56.0652,54.259 -0.062,42.064 -0.062,42.065 -69.6035,40.089 c -38.2819,22.049 -73.0189,42.056 -77.1933,44.459 l -7.5897,4.369 z"
           id="path12155"
           inkscape:connector-curvature="0" /><path
           style="opacity:1;vector-effect:none;fill:#9bb9ff;fill-opacity:1;stroke:none;stroke-width:6.31328154;stroke-linecap:butt;stroke-linejoin:round;stroke-miterlimit:4;stroke-dasharray:none;stroke-dashoffset:0;stroke-opacity:1"
           d="m 2758.5957,15363.318 c -11.2149,-6.628 -20.4084,-12.544 -20.43,-13.147 -0.046,-1.291 60.0131,-31.671 68.2006,-34.498 l 5.6002,-1.935 -1.0632,13.754 c -2.3584,30.507 -1.6781,28.658 -13.2038,35.89 -5.6631,3.553 -12.1902,7.704 -14.5048,9.223 -4.1274,2.71 -4.5999,2.531 -24.599,-9.287 z"
           id="path12157"
           inkscape:connector-curvature="0" /><path
           style="opacity:1;vector-effect:none;fill:#9bb9ff;fill-opacity:1;stroke:none;stroke-width:6.31328154;stroke-linecap:butt;stroke-linejoin:round;stroke-miterlimit:4;stroke-dasharray:none;stroke-dashoffset:0;stroke-opacity:1"
           d="m 2482.3541,15853.714 c -3.7943,-0.585 -4.5191,-1.697 -5.4288,-8.334 -1.6356,-11.934 -1.2245,-59.424 0.6986,-80.691 4.8796,-53.961 18.1747,-109.24 37.7642,-157.016 10.6324,-25.932 27.5809,-58.464 30.4581,-58.464 4.5748,0 162.8149,24.912 166.9037,26.275 2.2771,0.76 17.4404,18.689 37.0444,43.803 l 33.1893,42.516 1.1305,13.571 1.1305,13.572 -19.8007,39.124 -19.8006,39.125 -128.62,43.741 c -70.741,24.058 -128.9958,43.677 -129.4551,43.598 -0.4594,-0.08 -2.8057,-0.448 -5.2141,-0.82 z"
           id="path12159"
           inkscape:connector-curvature="0" /><path
           style="opacity:1;vector-effect:none;fill:#9bb9ff;fill-opacity:1;stroke:none;stroke-width:6.31328154;stroke-linecap:butt;stroke-linejoin:round;stroke-miterlimit:4;stroke-dasharray:none;stroke-dashoffset:0;stroke-opacity:1"
           d="m 3355.0673,15888.723 c -63.0013,-42.484 -63.7549,-43.059 -64.7798,-49.469 -0.8997,-5.626 -0.077,-8.114 6.2108,-18.784 l 7.2478,-12.299 80.8173,-54.389 80.8173,-54.388 37.1194,17.196 c 36.8803,17.086 37.1238,17.234 37.7941,22.865 0.371,3.118 -4.8936,35.373 -11.6991,71.678 l -12.3738,66.01 -20.1736,23.929 c -16.2184,19.237 -21.1828,24.101 -25.3202,24.807 -5.6107,0.957 -47.5388,5.816 -50.247,5.823 -0.9188,0 -30.3547,-19.338 -65.4132,-42.979 z"
           id="path12161"
           inkscape:connector-curvature="0" /><path
           style="opacity:1;vector-effect:none;fill:#9bb9ff;fill-opacity:1;stroke:none;stroke-width:6.31328154;stroke-linecap:butt;stroke-linejoin:round;stroke-miterlimit:4;stroke-dasharray:none;stroke-dashoffset:0;stroke-opacity:1"
           d="m 3398.1499,16039.886 -31.858,-40.507 27.3537,-27.397 27.3536,-27.397 19.7853,-2.189 c 10.8819,-1.203 22.4994,-2.585 25.8167,-3.07 l 6.0313,-0.881 1.2031,25.274 1.2031,25.274 -21.3059,45.7 c -11.7182,25.135 -21.8501,45.7 -22.5153,45.7 -0.6652,0 -15.5456,-18.228 -33.0676,-40.507 z"
           id="path12163"
           inkscape:connector-curvature="0" /><path
           style="opacity:1;vector-effect:none;fill:#9bb9ff;fill-opacity:1;stroke:none;stroke-width:6.31328154;stroke-linecap:butt;stroke-linejoin:round;stroke-miterlimit:4;stroke-dasharray:none;stroke-dashoffset:0;stroke-opacity:1"
           d="m 2873.1786,16093.607 -27.312,-21.801 -7.7479,-23.686 c -4.2613,-13.027 -10.3705,-32.071 -13.576,-42.32 l -5.828,-18.635 47.2416,-11.815 47.2416,-11.815 29.8092,8.597 c 16.395,4.729 30.6548,9.237 31.6886,10.019 1.0337,0.782 6.978,15.746 13.2096,33.253 9.9177,27.862 11.1411,32.573 9.8132,37.783 -1.4368,5.638 -3.898,7.354 -46.6174,32.504 -24.8053,14.603 -46.3402,27.264 -47.8555,28.134 -2.1798,1.253 -8.4566,-2.968 -30.067,-20.218 z"
           id="path12165"
           inkscape:connector-curvature="0" /><path
           style="opacity:1;vector-effect:none;fill:#9bb9ff;fill-opacity:1;stroke:none;stroke-width:6.31328154;stroke-linecap:butt;stroke-linejoin:round;stroke-miterlimit:4;stroke-dasharray:none;stroke-dashoffset:0;stroke-opacity:1"
           d="m 3043.5988,16328.962 c -5.8567,-7.525 -11.6133,-15.017 -12.7923,-16.649 -1.9004,-2.629 3.1006,-9.436 44.0512,-59.962 45.2773,-55.865 46.2988,-56.979 51.4202,-56.105 2.8739,0.49 10.1841,1.384 16.2448,1.985 l 11.0196,1.094 22.7501,43.412 22.7501,43.413 -19.3764,18.642 c -17.5911,16.925 -20.3177,18.911 -29.5937,21.562 -22.2744,6.366 -78.4236,16.29 -92.1691,16.29 -2.5966,0 -6.7411,-3.964 -14.3045,-13.682 z"
           id="path12167"
           inkscape:connector-curvature="0" /><path
           style="opacity:1;vector-effect:none;fill:#9bb9ff;fill-opacity:1;stroke:none;stroke-width:6.31328154;stroke-linecap:butt;stroke-linejoin:round;stroke-miterlimit:4;stroke-dasharray:none;stroke-dashoffset:0;stroke-opacity:1"
           d="m 3209.4283,15479.395 -55.706,-54.632 10.9921,-32.247 c 6.0457,-17.736 11.644,-33.412 12.4407,-34.835 0.7966,-1.424 15.2803,-8.847 32.1859,-16.495 l 30.7374,-13.907 20.8799,10.842 c 24.2267,12.58 60.7829,36.573 83.5195,54.815 20.1676,16.182 56.7932,50.619 56.7932,53.4 0,2.311 -31.472,77.955 -33.1876,79.767 -1.0934,1.155 -85.3138,8.13 -96.5757,7.998 -6.0887,-0.07 -8.862,-2.515 -62.0794,-54.706 z"
           id="path12169"
           inkscape:connector-curvature="0" /><path
           style="opacity:1;vector-effect:none;fill:#8992ff;fill-opacity:1;stroke:none;stroke-width:6.31328154;stroke-linecap:butt;stroke-linejoin:round;stroke-miterlimit:4;stroke-dasharray:none;stroke-dashoffset:0;stroke-opacity:1"
           d="m 3021.2575,15799.67 c -11.9433,-9.218 -21.7151,-17.514 -21.7151,-18.435 0,-0.92 5.6376,-8.718 12.5279,-17.328 l 12.5279,-15.654 27.3534,-12.631 c 15.0443,-6.947 27.991,-12.237 28.7703,-11.755 0.7793,0.482 15.0301,16.291 31.6684,35.131 30.5569,34.601 33.3112,38.834 33.3112,51.198 v 6.275 l -51.3645,-0.02 -51.3645,-0.02 z"
           id="path12171"
           inkscape:connector-curvature="0" /><path
           style="opacity:1;vector-effect:none;fill:#8992ff;fill-opacity:1;stroke:none;stroke-width:6.31328154;stroke-linecap:butt;stroke-linejoin:round;stroke-miterlimit:4;stroke-dasharray:none;stroke-dashoffset:0;stroke-opacity:1"
           d="m 2587.8035,15943.875 c -56.0655,-52.425 -84.4727,-80.073 -83.0757,-80.855 4.6961,-2.628 240.3448,-81.919 241.1289,-81.135 1.8036,1.804 53.7462,194.167 52.6897,195.13 -0.6166,0.562 -25.5505,9.866 -55.4087,20.676 -29.8582,10.809 -57.8534,21.048 -62.2116,22.752 l -7.924,3.1 z"
           id="path12173"
           inkscape:connector-curvature="0" /><path
           style="opacity:1;vector-effect:none;fill:#8992ff;fill-opacity:1;stroke:none;stroke-width:6.31328154;stroke-linecap:butt;stroke-linejoin:round;stroke-miterlimit:4;stroke-dasharray:none;stroke-dashoffset:0;stroke-opacity:1"
           d="m 2709.1393,16210.122 c -3.2152,-1.265 -15.6069,-15.631 -38.0735,-44.139 -18.3188,-23.245 -33.6844,-43.247 -34.1459,-44.449 -0.4614,-1.203 8.0806,-20.911 18.9824,-43.797 l 19.8212,-41.61 64.1917,-23.581 c 35.3054,-12.97 64.6861,-23.117 65.2904,-22.55 1.3207,1.239 26.4627,80.354 26.4627,83.27 0,1.122 -19.5061,30.83 -43.347,66.017 l -43.347,63.976 -13.9633,4.547 c -15.3843,5.01 -15.1022,4.98 -21.8717,2.316 z"
           id="path12175"
           inkscape:connector-curvature="0" /><path
           style="opacity:1;vector-effect:none;fill:#8992ff;fill-opacity:1;stroke:none;stroke-width:6.31328154;stroke-linecap:butt;stroke-linejoin:round;stroke-miterlimit:4;stroke-dasharray:none;stroke-dashoffset:0;stroke-opacity:1"
           d="m 2897.4962,16299.754 c -3.591,-1.208 -16.5333,-5.682 -28.7606,-9.943 l -22.2315,-7.747 -9.9235,-19.796 c -5.4579,-10.888 -9.9235,-20.107 -9.9235,-20.487 0,-0.511 46.0684,-26.173 78.8065,-43.897 0.6233,-0.337 10.0757,11.612 21.0053,26.555 l 19.872,27.169 3.764,19.018 c 3.2257,16.299 3.4296,19.353 1.4261,21.357 -1.2858,1.286 -12.5007,4.054 -24.9218,6.152 -19.7376,3.334 -23.4069,3.538 -29.113,1.619 z"
           id="path12177"
           inkscape:connector-curvature="0" /><path
           style="opacity:1;vector-effect:none;fill:#8992ff;fill-opacity:1;stroke:none;stroke-width:6.31328154;stroke-linecap:butt;stroke-linejoin:round;stroke-miterlimit:4;stroke-dasharray:none;stroke-dashoffset:0;stroke-opacity:1"
           d="m 2950.6847,15961.067 c -15.8472,-4.653 -28.6257,-8.908 -28.3966,-9.457 0.229,-0.549 15.0319,-36.831 32.8952,-80.628 17.8633,-43.796 33.0525,-79.427 33.7537,-79.18 4.821,1.697 45.0938,34.507 45.6582,37.197 0.3855,1.838 2.2453,24.012 4.1328,49.277 1.8876,25.264 3.787,48.601 4.221,51.858 0.7741,5.811 0.5923,6.022 -9.6161,11.192 -5.7228,2.898 -20.1768,10.429 -32.1201,16.734 l -21.7151,11.465 z"
           id="path12179"
           inkscape:connector-curvature="0" /><path
           style="opacity:1;vector-effect:none;fill:#8992ff;fill-opacity:1;stroke:none;stroke-width:6.31328154;stroke-linecap:butt;stroke-linejoin:round;stroke-miterlimit:4;stroke-dasharray:none;stroke-dashoffset:0;stroke-opacity:1"
           d="m 3061.7644,15937.369 c -5.5748,-2.365 -6.273,-3.327 -6.3463,-8.743 -0.045,-3.347 -1.8001,-26.756 -3.8995,-52.021 -2.0994,-25.264 -3.7536,-46.054 -3.676,-46.198 0.078,-0.144 23.6309,-0.813 52.3407,-1.486 44.0238,-1.032 52.2056,-0.86 52.2372,1.098 0.021,1.276 -3.4592,18.194 -7.733,37.594 l -7.7706,35.273 -30.9012,18.035 c -16.9957,9.919 -32.4956,18.275 -34.4443,18.57 -1.9487,0.294 -6.3618,-0.661 -9.807,-2.122 z"
           id="path12181"
           inkscape:connector-curvature="0" /><path
           style="opacity:1;vector-effect:none;fill:#8992ff;fill-opacity:1;stroke:none;stroke-width:6.31328154;stroke-linecap:butt;stroke-linejoin:round;stroke-miterlimit:4;stroke-dasharray:none;stroke-dashoffset:0;stroke-opacity:1"
           d="m 3066.8132,16157.463 c -11.6928,-3.343 -21.9536,-6.83 -22.8016,-7.749 -1.9549,-2.118 -20.6918,-62.753 -19.6983,-63.747 0.4058,-0.406 15.0189,-0.212 32.4736,0.431 l 31.7357,1.169 1.0934,29.403 c 0.6013,16.172 1.5264,33.349 2.0556,38.173 0.7477,6.813 0.4537,8.728 -1.3181,8.584 -1.2543,-0.102 -11.8474,-2.921 -23.5403,-6.264 z"
           id="path12183"
           inkscape:connector-curvature="0" /><path
           style="opacity:1;vector-effect:none;fill:#8992ff;fill-opacity:1;stroke:none;stroke-width:6.31328154;stroke-linecap:butt;stroke-linejoin:round;stroke-miterlimit:4;stroke-dasharray:none;stroke-dashoffset:0;stroke-opacity:1"
           d="m 3383.2545,16166.71 -13.8405,-8.644 -30.7265,-51.3 -30.7266,-51.301 24.3135,-22.197 c 13.3725,-12.208 24.8675,-22.196 25.5447,-22.196 0.6771,0 16.3683,19.299 34.8694,42.888 l 33.6383,42.888 -0.044,24.763 -0.044,24.762 -12.616,14.616 c -6.9388,8.039 -13.4961,14.559 -14.5717,14.491 -1.0757,-0.07 -8.184,-4.016 -15.7963,-8.77 z"
           id="path12185"
           inkscape:connector-curvature="0" /><path
           style="opacity:1;vector-effect:none;fill:#8992ff;fill-opacity:1;stroke:none;stroke-width:6.31328154;stroke-linecap:butt;stroke-linejoin:round;stroke-miterlimit:4;stroke-dasharray:none;stroke-dashoffset:0;stroke-opacity:1"
           d="m 3240.0784,15715.976 c -33.0737,-43.079 -60.3232,-78.873 -60.5545,-79.543 -0.2313,-0.669 19.3122,-20.901 43.4301,-44.96 l 43.8507,-43.743 51.1135,-3.888 51.1135,-3.889 42.4283,73.165 c 23.3355,40.241 42.6522,74.17 42.9259,75.399 0.2977,1.337 -29.8949,22.671 -75.1675,53.114 -41.6159,27.984 -76.4169,51.282 -77.3356,51.775 -0.9187,0.492 -28.7307,-34.351 -61.8044,-77.43 z"
           id="path12187"
           inkscape:connector-curvature="0" /><path
           style="opacity:1;vector-effect:none;fill:#8992ff;fill-opacity:1;stroke:none;stroke-width:6.31328154;stroke-linecap:butt;stroke-linejoin:round;stroke-miterlimit:4;stroke-dasharray:none;stroke-dashoffset:0;stroke-opacity:1"
           d="m 3153.2182,15621.158 -11.6927,-4.542 -23.9072,-48.234 -23.9071,-48.235 9.5704,-40.174 c 5.2638,-22.096 9.7238,-40.391 9.9112,-40.655 0.1873,-0.265 7.2115,-1.657 15.6092,-3.094 l 15.2686,-2.612 55.1996,53.931 55.1995,53.932 -42.2615,42.286 c -23.2438,23.257 -43.3946,42.208 -44.7794,42.112 -1.3848,-0.1 -7.7796,-2.217 -14.2106,-4.715 z"
           id="path12189"
           inkscape:connector-curvature="0" /><path
           style="opacity:1;vector-effect:none;fill:#777aff;fill-opacity:1;stroke:none;stroke-width:6.31328154;stroke-linecap:butt;stroke-linejoin:round;stroke-miterlimit:4;stroke-dasharray:none;stroke-dashoffset:0;stroke-opacity:1"
           d="m 3078.1358,15413.189 -28.3115,-12.152 0.4291,-9.016 c 0.236,-4.959 1.5024,-24.425 2.8142,-43.259 1.3118,-18.833 2.3958,-36.21 2.409,-38.615 0.02,-3.728 2.7647,-6.138 18.6253,-16.357 l 18.6015,-11.985 12.3156,2.07 c 6.7736,1.138 12.971,2.485 13.772,2.994 2.5236,1.602 45.2843,63.684 45.2941,65.761 0.01,1.85 -21.6967,66.343 -22.8137,67.786 -0.8418,1.086 -24.4026,5.012 -29.8129,4.967 -2.7562,-0.02 -17.7514,-5.511 -33.3227,-12.194 z"
           id="path12191"
           inkscape:connector-curvature="0" /><path
           style="opacity:1;vector-effect:none;fill:#777aff;fill-opacity:1;stroke:none;stroke-width:6.31328154;stroke-linecap:butt;stroke-linejoin:round;stroke-miterlimit:4;stroke-dasharray:none;stroke-dashoffset:0;stroke-opacity:1"
           d="m 2900.9895,15416.754 c -27.5615,-26.83 -50.3068,-49.18 -50.5453,-49.665 -0.2385,-0.486 19.305,-6.59 43.4301,-13.563 43.2283,-12.496 43.9242,-12.636 48.0397,-9.674 2.2968,1.653 20.7504,16.403 41.008,32.777 l 36.8321,29.773 -33.1551,29.226 c -18.2354,16.074 -33.6823,29.38 -34.3265,29.567 -0.6443,0.188 -23.7216,-21.611 -51.283,-48.441 z"
           id="path12193"
           inkscape:connector-curvature="0" /><path
           style="opacity:1;vector-effect:none;fill:#777adc;fill-opacity:1;stroke:none;stroke-width:6.31328154;stroke-linecap:butt;stroke-linejoin:round;stroke-miterlimit:4;stroke-dasharray:none;stroke-dashoffset:0;stroke-opacity:1"
           d="m 2994.0011,15368.867 c -20.4655,-16.504 -39.0921,-31.488 -41.3923,-33.297 l -4.1824,-3.29 13.7997,-20.156 c 10.9273,-15.96 14.6027,-20.155 17.6579,-20.155 5.1579,0 59.3301,13.452 61.2863,15.218 0.9347,0.844 0.4305,18.288 -1.2847,44.45 -1.5528,23.684 -2.8089,44.001 -2.7914,45.149 0.084,5.502 -8.7331,-0.21 -43.0931,-27.919 z"
           id="path12195"
           inkscape:connector-curvature="0" /><path
           style="opacity:1;vector-effect:none;fill:#777adc;fill-opacity:1;stroke:none;stroke-width:6.31328154;stroke-linecap:butt;stroke-linejoin:round;stroke-miterlimit:4;stroke-dasharray:none;stroke-dashoffset:0;stroke-opacity:1"
           d="m 3170.5846,15928.278 -21.0525,-23.185 7.8586,-35.154 c 4.3222,-19.334 8.1619,-35.457 8.5326,-35.827 0.3707,-0.371 25.4433,0.206 55.7169,1.282 l 55.0429,1.957 1.243,5.996 c 1.7515,8.449 -14.8896,79.36 -20.2177,86.152 -3.1926,4.069 -7.6255,5.812 -31.5521,12.406 -15.3107,4.219 -29.3409,8.096 -31.1784,8.615 -2.6716,0.754 -7.5575,-3.701 -24.3933,-22.242 z"
           id="path12197"
           inkscape:connector-curvature="0" /><path
           style="opacity:1;vector-effect:none;fill:#747adc;fill-opacity:1;stroke:none;stroke-width:6.31328154;stroke-linecap:butt;stroke-linejoin:round;stroke-miterlimit:4;stroke-dasharray:none;stroke-dashoffset:0;stroke-opacity:1"
           d="m 3028.7641,15728.537 c -0.013,-4.033 7.0137,-113.259 7.3103,-113.631 0.1242,-0.155 22.3982,2.591 49.4977,6.103 34.9693,4.532 52.0758,7.475 58.9315,10.14 5.3128,2.066 9.447,4.292 9.1871,4.948 -0.2599,0.656 -17.3852,17.427 -38.0563,37.27 l -37.5837,36.077 -22.5503,10.257 c -12.4026,5.641 -23.4898,10.635 -24.6382,11.097 -1.2209,0.492 -2.0922,-0.447 -2.0981,-2.261 z"
           id="path12199"
           inkscape:connector-curvature="0" /><path
           style="opacity:1;vector-effect:none;fill:#747adc;fill-opacity:1;stroke:none;stroke-width:6.31328154;stroke-linecap:butt;stroke-linejoin:round;stroke-miterlimit:4;stroke-dasharray:none;stroke-dashoffset:0;stroke-opacity:1"
           d="m 3118.4383,15746.233 c -14.5353,-16.558 -26.1863,-30.803 -25.891,-31.656 0.7706,-2.227 73.6928,-71.889 74.4551,-71.127 0.9221,0.922 -20.1757,132.936 -21.2409,132.91 -0.4924,-0.01 -12.7878,-13.57 -27.3232,-30.127 z"
           id="path12201"
           inkscape:connector-curvature="0" /><path
           style="opacity:1;vector-effect:none;fill:#747abc;fill-opacity:1;stroke:none;stroke-width:6.31328154;stroke-linecap:butt;stroke-linejoin:round;stroke-miterlimit:4;stroke-dasharray:none;stroke-dashoffset:0;stroke-opacity:1"
           d="m 3215.5765,16017.621 c -20.8258,-10.425 -38.3522,-19.743 -38.9476,-20.707 -1.1525,-1.865 5.7874,-14.926 13.8305,-26.029 4.7864,-6.607 5.3109,-6.838 31.8717,-13.993 14.8529,-4.002 27.3853,-6.896 27.8498,-6.431 1.23,1.23 4.4107,65.623 3.7889,76.704 l -0.5283,9.412 z"
           id="path12203"
           inkscape:connector-curvature="0" /><path
           style="opacity:1;vector-effect:none;fill:#449de8;fill-opacity:1;stroke:none;stroke-width:6.31328154;stroke-linecap:butt;stroke-linejoin:round;stroke-miterlimit:4;stroke-dasharray:none;stroke-dashoffset:0;stroke-opacity:1"
           d="m 3275.5742,16148.25 -69.7387,-6.863 0.1665,-10.035 c 0.091,-5.519 0.6553,-11.71 1.2528,-13.758 1.756,-6.02 53.2941,-67.268 56.603,-67.268 4.3239,0 29.3625,8.439 31.5639,10.639 1.0399,1.039 14.3396,22.748 29.5549,48.242 23.6827,39.682 27.1368,46.321 24.0002,46.129 -2.0151,-0.123 -35.0463,-3.312 -73.4026,-7.086 z"
           id="path12205"
           inkscape:connector-curvature="0" /><path
           style="opacity:1;vector-effect:none;fill:#449de8;fill-opacity:1;stroke:none;stroke-width:6.31328154;stroke-linecap:butt;stroke-linejoin:round;stroke-miterlimit:4;stroke-dasharray:none;stroke-dashoffset:0;stroke-opacity:1"
           d="m 3074.4695,15606.726 -42.0001,-5.559 -14.2879,-10.39 -14.2879,-10.39 40.0581,-24.998 c 22.0319,-13.749 40.3133,-24.711 40.6253,-24.359 0.7761,0.875 30.4573,61.999 35.3918,72.884 l 3.9755,8.77 -3.7373,-0.199 c -2.0556,-0.11 -22.6374,-2.701 -45.7375,-5.759 z"
           id="path12207"
           inkscape:connector-curvature="0" /><path
           style="opacity:1;vector-effect:none;fill:#449de8;fill-opacity:1;stroke:none;stroke-width:6.31328154;stroke-linecap:butt;stroke-linejoin:round;stroke-miterlimit:4;stroke-dasharray:none;stroke-dashoffset:0;stroke-opacity:1"
           d="m 3077.2295,15606.378 -44.2514,-5.742 -13.8903,-10.028 c -7.6396,-5.515 -13.6593,-10.231 -13.377,-10.48 3.88,-3.42 76.8946,-47.623 78.6647,-47.623 0.9998,0 38.4794,78.545 37.7505,79.112 -0.3549,0.277 -20.5583,-2.081 -44.8965,-5.239 z"
           id="path12209"
           inkscape:connector-curvature="0" /><path
           style="opacity:1;vector-effect:none;fill:#449de8;fill-opacity:1;stroke:none;stroke-width:6.31328154;stroke-linecap:butt;stroke-linejoin:round;stroke-miterlimit:4;stroke-dasharray:none;stroke-dashoffset:0;stroke-opacity:1"
           d="m 3237.5729,15823.043 c -74.5395,-3.051 -75.207,-3.117 -76.9466,-7.693 -2.2788,-5.994 -1.857,-27.273 0.9291,-46.872 4.1161,-28.954 16.11,-100.993 17.391,-104.456 0.9935,-2.685 7.8491,5.268 38.0145,44.102 20.2412,26.058 44.9272,58.084 54.8577,71.168 l 18.0555,23.79 -3.0451,6.753 c -4.1683,9.243 -9.8818,15.042 -14.5158,14.731 -2.111,-0.142 -17.7441,-0.827 -34.7403,-1.523 z"
           id="path12211"
           inkscape:connector-curvature="0" /><path
           style="opacity:1;vector-effect:none;fill:#449de8;fill-opacity:1;stroke:none;stroke-width:6.31328154;stroke-linecap:butt;stroke-linejoin:round;stroke-miterlimit:4;stroke-dasharray:none;stroke-dashoffset:0;stroke-opacity:1"
           d="m 3282.6734,16042.213 -14.1984,-4.513 -2.0877,-46.722 c -2.1094,-47.208 -1.5001,-56.756 3.3822,-53.007 1.1255,0.864 19.5228,14.537 40.8829,30.383 21.3601,15.847 38.8365,29.408 38.8365,30.135 0,1.266 -51.0201,48.634 -52.0958,48.366 -0.2868,-0.07 -6.9107,-2.16 -14.7197,-4.642 z"
           id="path12213"
           inkscape:connector-curvature="0" /><path
           style="opacity:1;vector-effect:none;fill:#449de8;fill-opacity:1;stroke:none;stroke-width:6.31328154;stroke-linecap:butt;stroke-linejoin:round;stroke-miterlimit:4;stroke-dasharray:none;stroke-dashoffset:0;stroke-opacity:1"
           d="m 2786.9698,16218.565 c -19.153,-8.503 -26.9039,-12.726 -26.2926,-14.324 0.8896,-2.326 76.9501,-115.146 79.4259,-117.812 1.9985,-2.152 54.4396,40.161 56.4312,45.532 1.4262,3.847 5.844,52.148 4.8394,52.911 -4.208,3.2 -83.2434,45.84 -84.898,45.803 -1.2906,-0.03 -14.5682,-5.478 -29.5059,-12.11 z"
           id="path12215"
           inkscape:connector-curvature="0" /><path
           style="opacity:1;vector-effect:none;fill:#449de8;fill-opacity:1;stroke:none;stroke-width:6.31328154;stroke-linecap:butt;stroke-linejoin:round;stroke-miterlimit:4;stroke-dasharray:none;stroke-dashoffset:0;stroke-opacity:1"
           d="m 2658.7189,16212.593 c -18.5298,-16.246 -48.38,-46.958 -62.2028,-63.999 l -10.393,-12.813 4.5926,-0.922 c 21.0995,-4.234 34.4137,-6.078 35.4477,-4.91 6.9034,7.799 63.5218,81.04 63.5218,82.171 0,1.343 -13.8586,13.597 -15.3787,13.597 -0.34,0 -7.3544,-5.906 -15.5876,-13.124 z"
           id="path12217"
           inkscape:connector-curvature="0" /><path
           style="opacity:1;vector-effect:none;fill:#449de8;fill-opacity:1;stroke:none;stroke-width:6.31328154;stroke-linecap:butt;stroke-linejoin:round;stroke-miterlimit:4;stroke-dasharray:none;stroke-dashoffset:0;stroke-opacity:1"
           d="m 2477.9952,15848.626 c -2.2329,-7.984 -0.8709,-76.709 1.978,-99.806 8.0996,-65.664 29.7881,-136.565 56.4618,-184.578 6.904,-12.427 9.0428,-14.655 13.3971,-13.961 2.0441,0.326 28.5217,4.376 58.8393,9 30.3175,4.624 66.0221,10.225 79.3434,12.446 l 24.2207,4.038 9.2103,9.907 c 5.0657,5.448 20.8247,24.774 35.0201,42.945 l 25.8098,33.038 1.2745,13.184 1.2746,13.185 -19.7371,39.447 -19.7371,39.446 -126.8032,43.074 c -72.8793,24.757 -129.4535,43.107 -133.0354,43.151 -5.4025,0.07 -6.4031,-0.534 -7.5168,-4.516 z"
           id="path12219"
           inkscape:connector-curvature="0" /><path
           style="opacity:1;vector-effect:none;fill:#bbd0ff;fill-opacity:0;stroke:none;stroke-width:6.31328154;stroke-linecap:butt;stroke-linejoin:round;stroke-miterlimit:4;stroke-dasharray:none;stroke-dashoffset:0;stroke-opacity:1"
           d="m 2992.1849,16295.23 c -13.393,-3.866 -24.6657,-8.041 -25.4243,-9.416 -0.7495,-1.358 -2.772,-9.725 -4.4943,-18.593 l -3.1314,-16.124 34.9176,-37.328 c 19.2046,-20.531 37.7403,-40.185 41.1903,-43.675 l 6.2728,-6.346 26.8916,7.403 c 21.383,5.887 28.2792,8.519 33.6658,12.847 l 6.7743,5.444 -7.0464,8.837 c -34.4801,43.238 -84.0474,104.088 -84.7194,104.003 -0.4594,-0.06 -11.6628,-3.232 -24.8966,-7.052 z"
           id="path12221"
           inkscape:connector-curvature="0" /><path
           style="opacity:1;vector-effect:none;fill:#bbd0ff;fill-opacity:0;stroke:none;stroke-width:6.31328154;stroke-linecap:butt;stroke-linejoin:round;stroke-miterlimit:4;stroke-dasharray:none;stroke-dashoffset:0;stroke-opacity:1"
           d="m 3130.1648,15981.826 c -16.3542,-2.536 -29.9587,-4.886 -30.2322,-5.222 -7.7474,-9.51 -17.4205,-25.785 -16.1062,-27.099 0.9126,-0.913 14.1811,-8.916 29.4856,-17.785 l 27.8264,-16.126 19.9962,21.438 c 11.6537,12.494 19.6359,22.378 19.1324,23.69 -2.3463,6.114 -16.433,26.103 -18.2683,25.922 -1.1544,-0.113 -15.4797,-2.281 -31.8339,-4.818 z"
           id="path12223"
           inkscape:connector-curvature="0" /><path
           style="opacity:1;vector-effect:none;fill:#bbd0ff;fill-opacity:1;stroke:none;stroke-width:6.31328154;stroke-linecap:butt;stroke-linejoin:round;stroke-miterlimit:4;stroke-dasharray:none;stroke-dashoffset:0;stroke-opacity:1"
           d="m 3100.8733,16042.874 -5.574,-9.425 2.9382,-19.907 c 1.616,-10.949 3.3726,-20.583 3.9036,-21.409 0.5489,-0.853 13.7567,0.369 30.6148,2.834 25.8725,3.782 29.6494,4.719 29.6494,7.351 0,2.451 -9.9059,46.58 -10.6434,47.415 -0.1178,0.133 -10.3617,0.765 -22.7643,1.404 l -22.5503,1.162 z"
           id="path12225"
           inkscape:connector-curvature="0" /><path
           style="opacity:1;vector-effect:none;fill:#bbd0ff;fill-opacity:1;stroke:none;stroke-width:6.31328154;stroke-linecap:butt;stroke-linejoin:round;stroke-miterlimit:4;stroke-dasharray:none;stroke-dashoffset:0;stroke-opacity:1"
           d="m 3130.1648,15981.826 c -16.3542,-2.536 -29.9587,-4.886 -30.2322,-5.222 -7.7474,-9.51 -17.4205,-25.785 -16.1062,-27.099 0.9126,-0.913 14.1811,-8.916 29.4856,-17.785 l 27.8264,-16.126 19.9962,21.438 c 11.6537,12.494 19.6359,22.378 19.1324,23.69 -2.3463,6.114 -16.433,26.103 -18.2683,25.922 -1.1544,-0.113 -15.4797,-2.281 -31.8339,-4.818 z"
           id="path12227"
           inkscape:connector-curvature="0" /><path
           style="opacity:1;vector-effect:none;fill:#bbd0ff;fill-opacity:1;stroke:none;stroke-width:6.31328154;stroke-linecap:butt;stroke-linejoin:round;stroke-miterlimit:4;stroke-dasharray:none;stroke-dashoffset:0;stroke-opacity:1"
           d="m 3195.3909,16095.04 c -3.1398,-3.922 -11.5179,-14.502 -18.6179,-23.511 l -12.9091,-16.38 4.5291,-19.533 c 2.491,-10.743 5.0676,-20.146 5.7259,-20.894 1.2148,-1.381 70.1355,32.162 70.1355,34.134 0,0.59 -9.7098,12.828 -21.5774,27.194 l -21.5773,26.121 z"
           id="path12229"
           inkscape:connector-curvature="0" /><path
           style="opacity:1;vector-effect:none;fill:#bbd0ff;fill-opacity:1;stroke:none;stroke-width:6.31328154;stroke-linecap:butt;stroke-linejoin:round;stroke-miterlimit:4;stroke-dasharray:none;stroke-dashoffset:0;stroke-opacity:1"
           d="m 2977.8273,16138.795 c -25.7239,-4.455 -51.9152,-8.975 -58.2027,-10.044 -6.2875,-1.068 -10.7976,-2.547 -10.0223,-3.286 0.7752,-0.739 21.6229,-13.206 46.3283,-27.704 l 44.9187,-26.361 3.7213,4.667 c 2.0942,2.626 7.8976,18.21 13.2728,35.641 5.2534,17.036 9.9423,31.993 10.4199,33.237 1.1199,2.919 3.8215,3.248 -50.436,-6.15 z"
           id="path12231"
           inkscape:connector-curvature="0" /><path
           style="opacity:1;vector-effect:none;fill:#bbd0ff;fill-opacity:1;stroke:none;stroke-width:6.31328154;stroke-linecap:butt;stroke-linejoin:round;stroke-miterlimit:4;stroke-dasharray:none;stroke-dashoffset:0;stroke-opacity:1"
           d="m 3054.6652,16073.625 c -12.8619,-0.647 -26.5187,-1.268 -30.3483,-1.38 -6.0502,-0.178 -7.4337,-0.966 -10.5543,-6.015 -2.0502,-3.317 -3.3631,-7.798 -3.0594,-10.44 l 0.5319,-4.629 28.5,-3.502 c 15.675,-1.925 32.2811,-4.003 36.9025,-4.616 l 8.4024,-1.114 5.3384,8.587 5.3383,8.588 -2.7033,8.139 c -2.6133,7.868 -2.9073,8.129 -8.833,7.849 -3.3713,-0.16 -16.6532,-0.819 -29.5152,-1.467 z"
           id="path12233"
           inkscape:connector-curvature="0" /><path
           style="opacity:1;vector-effect:none;fill:#bbd0ff;fill-opacity:1;stroke:none;stroke-width:6.31328154;stroke-linecap:butt;stroke-linejoin:round;stroke-miterlimit:4;stroke-dasharray:none;stroke-dashoffset:0;stroke-opacity:1"
           d="m 2992.1849,16295.23 c -13.393,-3.866 -24.6657,-8.041 -25.4243,-9.416 -0.7495,-1.358 -2.772,-9.725 -4.4943,-18.593 l -3.1314,-16.124 34.9176,-37.328 c 19.2046,-20.531 37.7403,-40.185 41.1903,-43.675 l 6.2728,-6.346 26.8916,7.403 c 21.383,5.887 28.2792,8.519 33.6658,12.847 l 6.7743,5.444 -7.0464,8.837 c -34.4801,43.238 -84.0474,104.088 -84.7194,104.003 -0.4594,-0.06 -11.6628,-3.232 -24.8966,-7.052 z"
           id="path12235"
           inkscape:connector-curvature="0" /><path
           style="opacity:1;vector-effect:none;fill:#bbd0ff;fill-opacity:1;stroke:none;stroke-width:6.31328154;stroke-linecap:butt;stroke-linejoin:round;stroke-miterlimit:4;stroke-dasharray:none;stroke-dashoffset:0;stroke-opacity:1"
           d="m 2962.5136,16342.807 c -5.6664,-0.549 -10.8472,-1.544 -11.5129,-2.211 -0.6656,-0.666 0.134,-9.054 1.777,-18.64 4.0904,-23.864 3.3098,-23.553 36.2184,-14.437 14.0689,3.897 26.4559,7.796 27.5268,8.665 1.0708,0.868 6.5684,7.553 12.2168,14.855 l 10.27,13.275 -33.0968,-0.255 c -18.2032,-0.14 -37.7329,-0.703 -43.3993,-1.252 z"
           id="path12237"
           inkscape:connector-curvature="0" /><path
           style="opacity:1;vector-effect:none;fill:#bbd0ff;fill-opacity:1;stroke:none;stroke-width:6.31328154;stroke-linecap:butt;stroke-linejoin:round;stroke-miterlimit:4;stroke-dasharray:none;stroke-dashoffset:0;stroke-opacity:1"
           d="m 2870.9224,16326.475 c -24.8811,-7.132 -40.9245,-12.85 -40.9245,-14.585 0,-1.077 3.3038,-5.201 7.3417,-9.164 l 7.3416,-7.205 24.1761,7.995 24.1761,7.994 -5.7811,8.047 c -3.1797,4.426 -6.2755,8.332 -6.8796,8.679 -0.604,0.348 -4.8567,-0.445 -9.4503,-1.761 z"
           id="path12239"
           inkscape:connector-curvature="0" /><path
           style="opacity:1;vector-effect:none;fill:#bbd0ff;fill-opacity:1;stroke:none;stroke-width:6.31328154;stroke-linecap:butt;stroke-linejoin:round;stroke-miterlimit:4;stroke-dasharray:none;stroke-dashoffset:0;stroke-opacity:1"
           d="m 3503.0308,15998.814 c -16.6691,-12.553 -15.0004,-8.68 -16.4585,-38.195 l -1.3035,-26.385 18.5344,-22.129 18.5343,-22.129 7.3327,7.332 7.3326,7.333 -4.5628,20.643 c -4.3892,19.857 -16.6438,61.732 -21.2739,72.695 l -2.2308,5.282 z"
           id="path12241"
           inkscape:connector-curvature="0" /><path
           style="opacity:1;vector-effect:none;fill:#bbd0ff;fill-opacity:1;stroke:none;stroke-width:6.31328154;stroke-linecap:butt;stroke-linejoin:round;stroke-miterlimit:4;stroke-dasharray:none;stroke-dashoffset:0;stroke-opacity:1"
           d="m 3439.367,16112.533 0.7964,-17.906 21.8822,-46.993 21.8823,-46.994 9.6184,7.402 c 5.2901,4.07 9.6184,8.118 9.6184,8.995 0,0.877 -4.5111,11.096 -10.0248,22.709 -11.0269,23.226 -29.9476,55.641 -44.9122,76.945 l -9.657,13.747 z"
           id="path12243"
           inkscape:connector-curvature="0" /><path
           style="opacity:1;vector-effect:none;fill:#bbd0ff;fill-opacity:1;stroke:none;stroke-width:6.31328154;stroke-linecap:butt;stroke-linejoin:round;stroke-miterlimit:4;stroke-dasharray:none;stroke-dashoffset:0;stroke-opacity:1"
           d="m 3205.0003,15821.215 c -16.5369,-0.79 -33.0564,-2.013 -36.7101,-2.718 -6.2795,-1.211 -6.7123,-1.687 -7.9096,-8.7 -2.2366,-13.102 3.9138,-62.828 15.6558,-126.58 2.937,-15.946 3.8354,-18.527 5.8622,-16.845 4.623,3.836 23.7809,27.833 65.4706,82.005 l 42.08,54.679 -3.5826,7.125 c -6.6208,13.168 -6.2308,13.001 -29.7608,12.722 -11.5712,-0.138 -34.5687,-0.897 -51.1055,-1.688 z"
           id="path12245"
           inkscape:connector-curvature="0" /></g></g><g
       style="fill-rule:evenodd"
       transform="translate(309.13902,125.67579)"
       id="g12317"
       clip-path="url(#clipPath10893)"><g
         transform="translate(5725.881,-28150.657)"
         id="g12315"><path
           style="opacity:1;vector-effect:none;fill:#ffd6ff;fill-opacity:1;stroke:none;stroke-width:3.77952766;stroke-linecap:butt;stroke-linejoin:round;stroke-miterlimit:4;stroke-dasharray:none;stroke-dashoffset:0;stroke-opacity:1"
           d="m 3938.0231,16074.617 -48.4413,-29.571 -11.0045,-28.961 -11.0045,-28.961 18.9381,-77.17 c 10.416,-42.444 20.1831,-78.528 21.7047,-80.187 3.9939,-4.355 230.0975,41.224 228.3774,46.037 -0.7371,2.062 -10.3001,37.362 -21.251,78.443 -10.9509,41.082 -20.3747,75.013 -20.9417,75.404 -0.5671,0.391 -23.5812,16.501 -51.1427,35.799 -27.5614,19.299 -51.615,35.91 -53.4524,36.914 -1.8374,1.004 -25.1394,-11.482 -51.7821,-27.747 z"
           id="path12251"
           inkscape:connector-curvature="0" /><path
           style="opacity:1;vector-effect:none;fill:#ffd6ff;fill-opacity:1;stroke:none;stroke-width:12.62656307;stroke-linecap:butt;stroke-linejoin:round;stroke-miterlimit:4;stroke-dasharray:none;stroke-dashoffset:0;stroke-opacity:1"
           d="m 4055.8325,16286.294 c -4.0751,-3.644 -16.1751,-35.576 -32.1075,-84.735 -14.0623,-43.388 -25.5679,-80.546 -25.5679,-82.572 0,-3.075 65.3956,-51.421 97.8653,-72.35 9.0539,-5.836 11.6655,-5.745 86.8602,3.032 42.6391,4.977 81.4466,10.549 86.2388,12.382 4.7923,1.834 14.2424,8.996 21.0003,15.917 l 12.287,12.583 -46.5369,95.499 -46.5368,95.498 -17.8935,1.963 c -25.2304,2.768 -105.6608,8.629 -118.4146,8.629 -5.8601,0 -13.5976,-2.631 -17.1944,-5.846 z"
           id="path12253"
           inkscape:connector-curvature="0" /><path
           style="opacity:1;vector-effect:none;fill:#ffd6ff;fill-opacity:1;stroke:none;stroke-width:6.31328154;stroke-linecap:butt;stroke-linejoin:round;stroke-miterlimit:4;stroke-dasharray:none;stroke-dashoffset:0;stroke-opacity:1"
           d="m 4162.0421,15797.695 c -2.7798,-5.489 -44.5886,-133.384 -44.5653,-136.328 0.01,-1.096 9.9683,-11.389 22.1326,-22.873 l 22.1169,-20.88 11.6928,0.541 11.6927,0.541 17.9212,45.709 17.9212,45.709 -11.7788,30.563 c -6.4783,16.81 -12.577,31.525 -13.5526,32.701 -0.9756,1.175 -8.396,8.183 -16.4897,15.572 l -14.7159,13.434 z"
           id="path12255"
           inkscape:connector-curvature="0" /><path
           style="opacity:1;vector-effect:none;fill:#ffd6ff;fill-opacity:1;stroke:none;stroke-width:6.31328154;stroke-linecap:butt;stroke-linejoin:round;stroke-miterlimit:4;stroke-dasharray:none;stroke-dashoffset:0;stroke-opacity:1"
           d="m 3771.2811,15774.879 c -51.2857,-5.015 -52.9938,-5.297 -52.0298,-8.563 3.2076,-10.871 18.1201,-42.923 27.9753,-60.129 15.0881,-26.343 20.681,-34.285 24.1419,-34.285 1.9686,0 12.731,16.446 34.5803,52.844 17.4471,29.064 31.9726,53.493 32.2789,54.287 0.8246,2.138 -8.5367,1.558 -66.9466,-4.154 z"
           id="path12257"
           inkscape:connector-curvature="0" /><path
           style="opacity:1;vector-effect:none;fill:#ffd6ff;fill-opacity:1;stroke:none;stroke-width:6.31328154;stroke-linecap:butt;stroke-linejoin:round;stroke-miterlimit:4;stroke-dasharray:none;stroke-dashoffset:0;stroke-opacity:1"
           d="m 3748.5423,16132.439 c -6.2923,-10.254 -20.1525,-39.207 -27.032,-56.468 -9.2507,-23.21 -17.4909,-52.319 -22.5225,-79.562 -4.4571,-24.132 -7.2078,-55.575 -4.8618,-55.575 3.1027,0 158.6769,50.474 160.2488,51.991 1.3669,1.319 20.9194,53.699 20.2483,54.244 -0.112,0.09 -17.4922,12.926 -38.6226,28.523 -21.1304,15.596 -48.7132,35.972 -61.2951,45.28 l -22.8762,16.924 z"
           id="path12259"
           inkscape:connector-curvature="0" /><path
           style="opacity:1;vector-effect:none;fill:#ffd6ff;fill-opacity:1;stroke:none;stroke-width:6.31328154;stroke-linecap:butt;stroke-linejoin:round;stroke-miterlimit:4;stroke-dasharray:none;stroke-dashoffset:0;stroke-opacity:1"
           d="m 4386.6538,16010.61 c -1.1029,-30.568 -2.4784,-66.289 -3.0565,-79.38 l -1.0511,-23.803 h 43.4108 43.4109 l 7.7894,11.297 c 4.2841,6.213 7.7893,11.857 7.7893,12.541 0,0.995 -91.1075,128.916 -95.1754,133.632 -0.6115,0.709 -2.0144,-23.72 -3.1174,-54.287 z"
           id="path12261"
           inkscape:connector-curvature="0" /><path
           style="opacity:1;vector-effect:none;fill:#ffd6ff;fill-opacity:1;stroke:none;stroke-width:6.31328154;stroke-linecap:butt;stroke-linejoin:round;stroke-miterlimit:4;stroke-dasharray:none;stroke-dashoffset:0;stroke-opacity:1"
           d="m 4248.5866,15609.646 c -27.5614,-0.859 -50.3432,-1.78 -50.6261,-2.045 -0.4705,-0.44 44.3227,-90.992 45.7899,-92.566 2.2397,-2.403 44.7998,15.924 69.7745,30.046 15.9478,9.018 51.1537,32.96 51.1537,34.787 0,0.583 -5.7361,7.999 -12.747,16.48 l -12.747,15.42 -20.2432,-0.279 c -11.1337,-0.154 -42.7934,-0.983 -70.3548,-1.843 z"
           id="path12263"
           inkscape:connector-curvature="0" /><path
           style="opacity:1;vector-effect:none;fill:#ffd6ff;fill-opacity:1;stroke:none;stroke-width:6.31328154;stroke-linecap:butt;stroke-linejoin:round;stroke-miterlimit:4;stroke-dasharray:none;stroke-dashoffset:0;stroke-opacity:1"
           d="m 4109.7009,15550.381 c -50.0144,-52.768 -51.697,-54.757 -47.5186,-56.175 2.3826,-0.808 22.7479,-1.556 45.2564,-1.662 31.7604,-0.15 45.2261,0.474 60.134,2.788 22.621,3.512 61.4098,12.552 62.6813,14.609 0.4884,0.791 -9.6593,22.522 -22.5504,48.291 l -23.4385,46.854 h -11.357 -11.3569 z"
           id="path12265"
           inkscape:connector-curvature="0" /><path
           style="opacity:1;vector-effect:none;fill:#ffd6ff;fill-opacity:1;stroke:none;stroke-width:6.31328154;stroke-linecap:butt;stroke-linejoin:round;stroke-miterlimit:4;stroke-dasharray:none;stroke-dashoffset:0;stroke-opacity:1"
           d="m 3969.6316,16319.96 c -78.4832,-28.028 -153.5982,-86.387 -201.4522,-156.516 -5.4031,-7.918 -9.6422,-14.535 -9.4203,-14.705 14.9755,-11.479 123.4364,-90.977 124.121,-90.977 0.7092,0 94.3668,56.216 98.9367,59.385 0.993,0.689 55.4626,169.337 55.3745,171.45 -0.1119,2.686 -43.9264,38.131 -46.9856,38.011 -1.2099,-0.05 -10.4682,-3.039 -20.5741,-6.648 z"
           id="path12267"
           inkscape:connector-curvature="0" /><path
           style="opacity:1;vector-effect:none;fill:#ffd6ff;fill-opacity:1;stroke:none;stroke-width:6.31328154;stroke-linecap:butt;stroke-linejoin:round;stroke-miterlimit:4;stroke-dasharray:none;stroke-dashoffset:0;stroke-opacity:1"
           d="m 3933.7182,15739.65 v -24.123 l 25.3135,-54.324 c 17.4278,-37.401 25.937,-53.953 27.3154,-53.133 1.1012,0.656 20.0546,15.019 42.1188,31.919 l 40.1166,30.727 -14.2702,21.055 c -23.3413,34.439 -16.6275,29.537 -71.3012,52.066 -26.6101,10.965 -48.587,19.936 -48.8375,19.936 -0.2504,0 -0.4554,-10.855 -0.4554,-24.123 z"
           id="path12269"
           inkscape:connector-curvature="0" /><path
           style="opacity:1;vector-effect:none;fill:#ffd6ff;fill-opacity:1;stroke:none;stroke-width:6.31328154;stroke-linecap:butt;stroke-linejoin:round;stroke-miterlimit:4;stroke-dasharray:none;stroke-dashoffset:0;stroke-opacity:1"
           d="m 4360.5232,15885.182 c -16.2106,-9.313 -17.6112,-10.511 -16.8609,-14.419 0.4501,-2.343 2.1375,-17.791 3.7498,-34.328 l 2.9314,-30.067 8.0177,-12.61 8.0177,-12.609 49.0852,7.504 49.0852,7.504 8.3683,13.631 8.3683,13.631 -7.1889,34.598 c -3.9538,19.028 -7.4523,34.826 -7.7743,35.106 -0.3221,0.279 -20.2809,0.892 -44.3529,1.362 l -43.7674,0.854 z"
           id="path12271"
           inkscape:connector-curvature="0" /><path
           style="opacity:1;vector-effect:none;fill:#ff80ff;fill-opacity:1;stroke:none;stroke-width:6.31328154;stroke-linecap:butt;stroke-linejoin:round;stroke-miterlimit:4;stroke-dasharray:none;stroke-dashoffset:0;stroke-opacity:1"
           d="m 4348.9049,15714.369 -8.066,-10.986 3.6258,-41.039 3.6257,-41.038 11.0218,-13.215 c 7.2841,-8.733 11.8505,-12.896 13.4656,-12.276 6.0853,2.335 60.7865,51.215 68.6429,61.338 4.7563,6.129 8.6478,11.536 8.6478,12.015 0,0.728 -91.301,56.186 -92.5002,56.186 -0.2185,0 -4.027,-4.943 -8.4634,-10.985 z"
           id="path12273"
           inkscape:connector-curvature="0" /><path
           style="opacity:1;vector-effect:none;fill:#ff80ff;fill-opacity:1;stroke:none;stroke-width:6.31328154;stroke-linecap:butt;stroke-linejoin:round;stroke-miterlimit:4;stroke-dasharray:none;stroke-dashoffset:0;stroke-opacity:1"
           d="m 4184.2974,16036.576 c -39.9526,-5.015 -72.9244,-9.402 -73.2706,-9.748 -1.2943,-1.294 40.7833,-155.271 43.2711,-158.343 2.5144,-3.106 4.3798,-2.53 60.9692,18.848 32.1064,12.128 58.9893,22.639 59.7397,23.356 0.7504,0.717 -0.565,30.342 -2.9232,65.832 -2.3581,35.491 -4.2875,65.658 -4.2875,67.038 0,3.475 -0.5639,3.428 -83.4987,-6.983 z"
           id="path12275"
           inkscape:connector-curvature="0" /><path
           style="opacity:1;vector-effect:none;fill:#ff80ff;fill-opacity:1;stroke:none;stroke-width:6.31328154;stroke-linecap:butt;stroke-linejoin:round;stroke-miterlimit:4;stroke-dasharray:none;stroke-dashoffset:0;stroke-opacity:1"
           d="m 3771.6905,15951.792 -79.3435,-25.56 -0.5542,-8.15 c -0.8285,-12.182 2.8371,-53.912 6.5777,-74.881 3.3771,-18.932 12.478,-55.535 14.7031,-59.135 0.9561,-1.547 15.556,-0.647 62.9211,3.878 33.9219,3.241 64.5915,6.352 68.1547,6.913 6.0304,0.949 46.3922,23.736 48.7229,27.507 0.5567,0.901 -7.5016,36.189 -17.9074,78.418 -14.5919,59.216 -19.4929,76.756 -21.4253,76.675 -1.3781,-0.06 -38.2102,-11.606 -81.8491,-25.665 z"
           id="path12277"
           inkscape:connector-curvature="0" /><path
           style="opacity:1;vector-effect:none;fill:#ff80ff;fill-opacity:1;stroke:none;stroke-width:6.31328154;stroke-linecap:butt;stroke-linejoin:round;stroke-miterlimit:4;stroke-dasharray:none;stroke-dashoffset:0;stroke-opacity:1"
           d="m 3877.9959,15797.256 -21.4793,-13.202 -33.4888,-55.659 c -18.4188,-30.612 -33.5584,-56.941 -33.6435,-58.51 -0.1778,-3.276 54.2966,-53.672 55.9953,-51.802 0.6006,0.661 17.897,22.624 38.4364,48.807 l 37.3443,47.607 -0.5691,29.231 -0.569,29.232 -9.9948,18.792 c -5.4971,10.336 -10.1202,18.773 -10.2735,18.749 -0.1532,-0.02 -9.9443,-5.984 -21.758,-13.245 z"
           id="path12279"
           inkscape:connector-curvature="0" /><path
           style="opacity:1;vector-effect:none;fill:#ff80ff;fill-opacity:1;stroke:none;stroke-width:6.31328154;stroke-linecap:butt;stroke-linejoin:round;stroke-miterlimit:4;stroke-dasharray:none;stroke-dashoffset:0;stroke-opacity:1"
           d="m 3889.1904,15652.985 -37.0111,-47.064 30.5081,-30.657 30.5081,-30.658 28.1684,-3.205 c 15.4926,-1.763 29.0095,-2.883 30.0376,-2.488 1.2116,0.465 2.2543,10.482 2.9638,28.472 l 1.0946,27.754 -23.5114,50.464 c -12.9312,27.754 -24.0144,51.359 -24.6292,52.455 -0.6705,1.194 -15.9267,-16.84 -38.1289,-45.073 z"
           id="path12281"
           inkscape:connector-curvature="0" /><path
           style="opacity:1;vector-effect:none;fill:#ff80ff;fill-opacity:1;stroke:none;stroke-width:6.31328154;stroke-linecap:butt;stroke-linejoin:round;stroke-miterlimit:4;stroke-dasharray:none;stroke-dashoffset:0;stroke-opacity:1"
           d="m 4035.612,15629.185 c -23.4272,-17.947 -43.6596,-33.682 -44.9608,-34.967 -1.7399,-1.717 -2.7461,-10.11 -3.8033,-31.727 l -1.4375,-29.393 12.5885,-14.838 c 12.1567,-14.328 12.9175,-14.904 22.1776,-16.768 5.274,-1.062 12.22,-2.484 15.4355,-3.16 l 5.8463,-1.229 53.9331,56.915 53.933,56.914 -22.1956,21.245 c -20.9629,20.064 -22.8918,21.479 -34.7293,25.473 -6.8935,2.326 -12.9069,4.215 -13.3631,4.198 -0.4562,-0.02 -19.9972,-14.716 -43.4244,-32.663 z"
           id="path12283"
           inkscape:connector-curvature="0" /><path
           style="opacity:1;vector-effect:none;fill:#ff3bff;fill-opacity:1;stroke:none;stroke-width:6.31328154;stroke-linecap:butt;stroke-linejoin:round;stroke-miterlimit:4;stroke-dasharray:none;stroke-dashoffset:0;stroke-opacity:1"
           d="m 4246.6179,16299.457 c -12.1074,-6.609 -22.3653,-12.393 -22.7953,-12.852 -0.4301,-0.46 20.1069,-44.057 45.6378,-96.883 l 46.4197,-96.047 h 22.2482 22.2483 l 17.9411,65.145 c 9.8677,35.83 17.9765,66.304 18.0198,67.721 0.1623,5.322 -30.7124,31.199 -60.9776,51.107 -19.035,12.522 -59.7894,34.035 -64.2231,33.902 -1.378,-0.04 -12.4116,-5.483 -24.5189,-12.093 z"
           id="path12285"
           inkscape:connector-curvature="0" /><path
           style="opacity:1;vector-effect:none;fill:#ff3bff;fill-opacity:1;stroke:none;stroke-width:6.31328154;stroke-linecap:butt;stroke-linejoin:round;stroke-miterlimit:4;stroke-dasharray:none;stroke-dashoffset:0;stroke-opacity:1"
           d="m 4277.1057,15784.017 c -34.8437,-7.055 -63.6133,-13.61 -63.9324,-14.568 -0.3191,-0.957 3.8882,-13.337 9.3497,-27.511 l 9.9299,-25.771 43.145,-1.932 c 23.7298,-1.062 45.8727,-2.002 49.2066,-2.088 5.6445,-0.145 6.7003,0.693 15.3463,12.18 8.8192,11.717 9.4556,13.237 12.6932,30.317 l 3.4085,17.981 -7.6525,12.278 c -4.209,6.753 -7.7627,12.202 -7.8973,12.11 -0.1346,-0.09 -28.7532,-5.941 -63.597,-12.996 z"
           id="path12287"
           inkscape:connector-curvature="0" /><path
           style="opacity:1;vector-effect:none;fill:#ff3bff;fill-opacity:1;stroke:none;stroke-width:6.31328154;stroke-linecap:butt;stroke-linejoin:round;stroke-miterlimit:4;stroke-dasharray:none;stroke-dashoffset:0;stroke-opacity:1"
           d="m 4230.995,15699.912 c -2.5633,-5.784 -31.2529,-78.932 -31.0381,-79.136 0.5571,-0.53 133.5388,4.352 134.11,4.924 1.0152,1.015 -5.5321,71.21 -6.7561,72.434 -0.5795,0.579 -14.0194,1.634 -29.8666,2.344 -15.8471,0.709 -36.9032,1.725 -46.7913,2.257 -17.5184,0.941 -18.0214,0.869 -19.6579,-2.823 z"
           id="path12289"
           inkscape:connector-curvature="0" /><path
           style="opacity:1;vector-effect:none;fill:#ffdcff;fill-opacity:1;stroke:none;stroke-width:6.31328154;stroke-linecap:butt;stroke-linejoin:round;stroke-miterlimit:4;stroke-dasharray:none;stroke-dashoffset:0;stroke-opacity:1"
           d="m 4026.4248,15836.112 c -61.5538,-12.399 -112.0995,-22.718 -112.3237,-22.932 -0.2242,-0.214 3.5342,-7.971 8.352,-17.238 l 8.7596,-16.85 50.9468,-20.929 c 28.0208,-11.51 51.821,-21.158 52.8894,-21.44 2.8814,-0.759 116.1591,68.476 119.6329,73.12 2.8664,3.831 2.8428,4.715 -0.6317,23.638 -3.7438,20.39 -6.2638,25.619 -12.2097,25.339 -1.9247,-0.09 -53.8617,-10.309 -115.4156,-22.708 z"
           id="path12291"
           inkscape:connector-curvature="0" /><path
           style="opacity:1;vector-effect:none;fill:#ffdcff;fill-opacity:1;stroke:none;stroke-width:6.31328154;stroke-linecap:butt;stroke-linejoin:round;stroke-miterlimit:4;stroke-dasharray:none;stroke-dashoffset:0;stroke-opacity:1"
           d="m 4261.1145,15890.943 c -11.4839,-4.406 -38.2521,-14.587 -59.4847,-22.622 l -38.6049,-14.611 2.1147,-10.308 c 1.1631,-5.669 2.9743,-14.548 4.025,-19.731 1.8271,-9.013 2.6551,-10.113 19.0318,-25.3 l 17.1216,-15.877 57.5477,11.51 c 31.6512,6.33 61.3191,12.282 65.9287,13.227 l 8.381,1.718 -3.3698,32.652 -3.37,32.653 -23.3854,12.375 c -12.862,6.806 -23.7613,12.364 -24.2206,12.351 -0.4594,-0.01 -10.2312,-3.63 -21.7151,-8.037 z"
           id="path12293"
           inkscape:connector-curvature="0" /><path
           style="opacity:1;vector-effect:none;fill:#ffdcff;fill-opacity:1;stroke:none;stroke-width:6.31328154;stroke-linecap:butt;stroke-linejoin:round;stroke-miterlimit:4;stroke-dasharray:none;stroke-dashoffset:0;stroke-opacity:1"
           d="m 4297.4143,16065.733 -17.0903,-14.58 0.544,-9.641 c 1.8819,-33.354 8.5549,-131.205 8.9733,-131.581 1.7812,-1.603 45.0857,-22.549 46.6192,-22.549 2.2307,0 31.2671,16.551 32.4803,18.514 0.456,0.737 1.9066,30.511 3.2236,66.163 1.3171,35.653 2.8406,72.868 3.3856,82.702 l 0.991,17.88 -6.448,3.289 c -5.36,2.735 -10.5943,3.382 -31.0182,3.836 l -24.5701,0.546 z"
           id="path12295"
           inkscape:connector-curvature="0" /><path
           style="opacity:1;vector-effect:none;fill:#ffdcff;fill-opacity:1;stroke:none;stroke-width:6.31328154;stroke-linecap:butt;stroke-linejoin:round;stroke-miterlimit:4;stroke-dasharray:none;stroke-dashoffset:0;stroke-opacity:1"
           d="m 4089.0644,16344.825 c 0,-0.423 -2.9822,-8.984 -6.6272,-19.025 -3.6449,-10.041 -6.0879,-18.719 -5.4287,-19.283 0.6591,-0.565 31.6412,-3.1 68.8492,-5.635 l 67.6507,-4.608 19.6271,10.503 c 10.7949,5.777 19.6271,11.083 19.6271,11.791 0,3.59 -52.7861,17.377 -85.1899,22.251 -16.5798,2.493 -78.5083,5.653 -78.5083,4.006 z"
           id="path12297"
           inkscape:connector-curvature="0" /><path
           style="opacity:1;vector-effect:none;fill:#ff49ff;fill-opacity:1;stroke:none;stroke-width:6.31328154;stroke-linecap:butt;stroke-linejoin:round;stroke-miterlimit:4;stroke-dasharray:none;stroke-dashoffset:0;stroke-opacity:1"
           d="m 4095.0427,15756.233 c -24.7328,-15.093 -45.6843,-28.157 -46.5589,-29.032 -1.0067,-1.006 4.7993,-10.938 15.8226,-27.066 l 17.4128,-25.476 11.4796,-3.872 c 6.3138,-2.13 11.6336,-3.69 11.8218,-3.467 0.5679,0.673 37.4963,114.424 37.4963,115.5 0,0.549 -0.5638,0.966 -1.2528,0.926 -0.6891,-0.04 -21.4887,-12.42 -46.2214,-27.513 z"
           id="path12299"
           inkscape:connector-curvature="0" /><path
           style="opacity:1;vector-effect:none;fill:#ffdfff;fill-opacity:1;stroke:none;stroke-width:6.31328154;stroke-linecap:butt;stroke-linejoin:round;stroke-miterlimit:4;stroke-dasharray:none;stroke-dashoffset:0;stroke-opacity:1"
           d="m 3969.6316,16319.915 c -78.0014,-28.063 -151.7722,-85.008 -199.7797,-154.213 l -11.4485,-16.504 10.4019,-7.874 c 15.5409,-11.764 106.0412,-78.207 110.5316,-81.149 3.7482,-2.456 5.7254,-1.449 52.9405,26.964 26.9758,16.234 49.4694,30.174 49.9857,30.979 0.5164,0.806 13.1926,39.428 28.1693,85.828 23.2417,72.006 26.9054,84.755 25.0111,87.038 -4.0887,4.926 -43.3066,35.711 -45.3851,35.626 -1.1289,-0.05 -10.3209,-3.059 -20.4268,-6.695 z"
           id="path12301"
           inkscape:connector-curvature="0" /><path
           style="opacity:1;vector-effect:none;fill:#ff5aff;fill-opacity:1;stroke:none;stroke-width:6.31328154;stroke-linecap:butt;stroke-linejoin:round;stroke-miterlimit:4;stroke-dasharray:none;stroke-dashoffset:0;stroke-opacity:1"
           d="m 3878.659,15797.22 c -10.5124,-6.416 -20.3783,-12.996 -21.9242,-14.622 -2.6754,-2.814 -47.3421,-77.254 -60.6606,-101.095 l -6.3007,-11.278 4.5232,-5.426 c 5.3118,-6.371 34.2314,-33.436 43.9643,-41.145 l 6.7513,-5.347 12.314,15.522 c 6.7726,8.537 23.7248,30.057 37.6714,47.822 l 25.3574,32.3 -0.024,28.669 -0.024,28.67 -9.7487,18.291 c -5.3618,10.06 -10.432,18.519 -11.2672,18.797 -0.8353,0.279 -10.1197,-4.743 -20.6321,-11.158 z"
           id="path12303"
           inkscape:connector-curvature="0" /><path
           style="opacity:1;vector-effect:none;fill:#ff5aff;fill-opacity:1;stroke:none;stroke-width:6.31328154;stroke-linecap:butt;stroke-linejoin:round;stroke-miterlimit:4;stroke-dasharray:none;stroke-dashoffset:0;stroke-opacity:1"
           d="m 4445.29,16085.488 c -23.1892,-6.658 -42.6269,-12.571 -43.1947,-13.138 -0.7159,-0.716 75.8694,-109.22 93.7657,-132.845 0.2058,-0.271 7.3319,2.291 15.8357,5.695 l 15.4617,6.188 -1.0998,14.35 c -1.704,22.235 -10.2932,61.595 -19.3102,88.491 -8.887,26.507 -16.0098,43.697 -18.0223,43.493 -0.7006,-0.07 -20.2469,-5.576 -43.4361,-12.234 z"
           id="path12305"
           inkscape:connector-curvature="0" /><path
           style="opacity:1;vector-effect:none;fill:#ffa4ff;fill-opacity:1;stroke:none;stroke-width:6.31328154;stroke-linecap:butt;stroke-linejoin:round;stroke-miterlimit:4;stroke-dasharray:none;stroke-dashoffset:0;stroke-opacity:1"
           d="m 4389.9042,16152.791 c -13.2146,-48.405 -16.8676,-63.934 -15.2718,-64.92 1.1537,-0.713 4.8357,-2.163 8.1823,-3.223 5.5665,-1.763 10.0362,-0.804 52.4933,11.262 25.5248,7.253 46.8089,13.588 47.2979,14.077 2.5588,2.559 -22.1763,43.684 -41.7066,69.343 -12.8746,16.914 -30.5907,37.131 -32.5131,37.102 -0.612,0 -8.9289,-28.648 -18.482,-63.641 z"
           id="path12307"
           inkscape:connector-curvature="0" /><path
           style="opacity:1;vector-effect:none;fill:#ffa4ff;fill-opacity:1;stroke:none;stroke-width:6.31328154;stroke-linecap:butt;stroke-linejoin:round;stroke-miterlimit:4;stroke-dasharray:none;stroke-dashoffset:0;stroke-opacity:1"
           d="m 4512.5081,15931.704 c -12.8095,-5.265 -13.785,-6.06 -23.5442,-19.177 l -10.181,-13.684 6.6427,-32.039 c 3.6535,-17.622 7.2333,-33.616 7.955,-35.543 1.0939,-2.921 3.2021,-3.681 12.6708,-4.565 6.2473,-0.583 11.8599,-0.51 12.4726,0.163 1.5366,1.688 6.0191,27.93 8.1159,47.511 2.0013,18.69 2.3433,63.196 0.4841,62.975 -0.6891,-0.08 -7.2662,-2.621 -14.6159,-5.641 z"
           id="path12309"
           inkscape:connector-curvature="0" /><path
           style="opacity:1;vector-effect:none;fill:#ffa4ff;fill-opacity:1;stroke:none;stroke-width:6.31328154;stroke-linecap:butt;stroke-linejoin:round;stroke-miterlimit:4;stroke-dasharray:none;stroke-dashoffset:0;stroke-opacity:1"
           d="m 4439.8461,15779.455 c -13.3213,-2.057 -34.8156,-5.373 -47.7651,-7.369 l -23.5444,-3.629 -1.9669,-10.675 c -1.0818,-5.871 -2.402,-12.85 -2.9338,-15.509 -0.9536,-4.768 -0.3634,-5.196 43.0504,-31.213 24.2096,-14.508 45.6467,-27.42 47.6381,-28.694 3.4754,-2.223 3.986,-1.692 12.7152,13.237 5.002,8.554 10.9904,18.905 13.3076,23.002 l 4.2132,7.449 -8.8481,25.123 c -4.8665,13.818 -9.4775,26.675 -10.2468,28.572 l -1.3987,3.447 z"
           id="path12311"
           inkscape:connector-curvature="0" /><path
           style="opacity:1;vector-effect:none;fill:#ffa4ff;fill-opacity:1;stroke:none;stroke-width:6.31328154;stroke-linecap:butt;stroke-linejoin:round;stroke-miterlimit:4;stroke-dasharray:none;stroke-dashoffset:0;stroke-opacity:1"
           d="m 4487.7877,15809.366 c -2.1876,-3.486 -5.7311,-9.404 -7.8744,-13.15 l -3.8971,-6.812 8.1225,-23.116 8.1224,-23.116 3.1998,7.377 c 4.2904,9.892 19.5527,55.975 19.5527,59.037 0,3.316 -0.9723,3.693 -12.877,4.99 l -10.3716,1.13 z"
           id="path12313"
           inkscape:connector-curvature="0" /></g></g><g
       transform="translate(5740.6405,-28150.657)"
       id="g12365"><path
         style="opacity:1;vector-effect:none;fill:#ffb5a7;fill-opacity:1;stroke:none;stroke-width:12.62656307;stroke-linecap:butt;stroke-linejoin:round;stroke-miterlimit:4;stroke-dasharray:none;stroke-dashoffset:0;stroke-opacity:1"
         d="m 4782.6447,16114.727 c -33.0737,-15.278 -60.134,-29.039 -60.134,-30.581 0,-1.541 5.9623,-22.765 13.2495,-47.164 l 13.2496,-44.362 13.4767,1.723 c 7.4121,0.948 33.7719,3.276 58.5772,5.173 71.1389,5.44 65.3493,3.072 78.5935,32.135 l 11.4426,25.109 -32.4902,43.002 c -17.8695,23.651 -33.2418,42.944 -34.1605,42.872 -0.9187,-0.07 -28.7307,-12.629 -61.8044,-27.907 z"
         id="path12319"
         inkscape:connector-curvature="0" /><path
         style="opacity:1;vector-effect:none;fill:#ffb5a7;fill-opacity:1;stroke:none;stroke-width:8.92832851;stroke-linecap:butt;stroke-linejoin:round;stroke-miterlimit:4;stroke-dasharray:none;stroke-dashoffset:0;stroke-opacity:1"
         d="m 5026.2293,15928.21 c -7.056,-3.675 -11.808,-8.053 -13.3425,-12.292 -1.3108,-3.621 -7.7569,-18.549 -14.3247,-33.173 l -11.9414,-26.589 49.7683,-40.219 c 40.1805,-32.471 50.7401,-39.921 54.8125,-38.671 2.7743,0.851 5.1174,1.682 5.2068,1.845 0.09,0.163 3.6387,23.152 7.8873,51.086 4.2485,27.934 8.1203,52.384 8.604,54.333 0.5955,2.399 -10.8116,10.982 -35.3206,26.576 -19.91,12.667 -37.1429,22.982 -38.2953,22.922 -1.1523,-0.06 -7.0268,-2.679 -13.0544,-5.818 z"
         id="path12321"
         inkscape:connector-curvature="0" /><path
         style="opacity:1;vector-effect:none;fill:#ffb5a7;fill-opacity:1;stroke:none;stroke-width:8.92832851;stroke-linecap:butt;stroke-linejoin:round;stroke-miterlimit:4;stroke-dasharray:none;stroke-dashoffset:0;stroke-opacity:1"
         d="m 5072.4505,16045.708 -9.6215,-3.576 -6.5111,-41.595 c -3.581,-22.877 -7.057,-44.348 -7.7244,-47.712 -1.1249,-5.67 1.4055,-7.799 34.695,-29.185 27.3369,-17.562 36.899,-22.587 40.0584,-21.05 2.2825,1.111 12.7669,8.397 23.2986,16.193 17.9006,13.25 19.628,15.31 26.5021,31.609 6.074,14.403 6.8053,17.938 4.2035,20.32 -4.1153,3.767 -87.1358,72.472 -91.7414,75.922 -2.66,1.993 -5.925,1.763 -13.1592,-0.926 z"
         id="path12323"
         inkscape:connector-curvature="0" /><path
         style="opacity:1;vector-effect:none;fill:#ffb5a7;fill-opacity:1;stroke:none;stroke-width:8.92832851;stroke-linecap:butt;stroke-linejoin:round;stroke-miterlimit:4;stroke-dasharray:none;stroke-dashoffset:0;stroke-opacity:1"
         d="m 5070.2605,16230.447 c -14.2918,-9.67 -26.2423,-18.373 -26.5566,-19.342 -0.4585,-1.413 63.3039,-86.396 70.1017,-93.432 1.0119,-1.047 21.0805,8.908 44.5968,22.123 l 42.757,24.027 1.5287,10.194 c 1.3735,9.159 0.7243,11.198 -6.3923,20.078 -6.5492,8.173 -15.5874,13.724 -52.1902,32.056 -24.3481,12.194 -45.0772,22.105 -46.0646,22.024 -0.9874,-0.08 -13.4887,-8.059 -27.7805,-17.728 z"
         id="path12325"
         inkscape:connector-curvature="0" /><path
         style="opacity:1;vector-effect:none;fill:#ffb5a7;fill-opacity:1;stroke:none;stroke-width:8.92832851;stroke-linecap:butt;stroke-linejoin:round;stroke-miterlimit:4;stroke-dasharray:none;stroke-dashoffset:0;stroke-opacity:1"
         d="m 4987.1696,16338.533 c -10.6201,-3.492 -20.046,-7.094 -20.9466,-8.004 -0.9006,-0.91 -0.8692,-20.596 0.07,-43.745 l 1.7074,-42.09 18.0581,-12.368 c 16.4071,-11.236 19.2472,-12.366 31.0647,-12.359 12.3971,0 14.4337,0.961 43.4579,20.345 l 30.4512,20.338 -1.458,26.318 -1.4581,26.317 -14.81,13.342 c -13.653,12.3 -15.9191,13.457 -29.0072,14.809 -35.5268,3.669 -37.4416,3.571 -57.1293,-2.903 z"
         id="path12327"
         inkscape:connector-curvature="0" /><path
         style="opacity:1;vector-effect:none;fill:#ffb5a7;fill-opacity:1;stroke:none;stroke-width:8.92832851;stroke-linecap:butt;stroke-linejoin:round;stroke-miterlimit:4;stroke-dasharray:none;stroke-dashoffset:0;stroke-opacity:1"
         d="m 4915.5307,16331.929 c -25.8658,-7.611 -63.7502,-25.704 -85.9416,-41.045 -28.5306,-19.723 -28.5381,-15.35 0.09,-52.031 13.6806,-17.529 25.7526,-32.796 26.8266,-33.926 1.0855,-1.143 23.018,7.703 49.3874,19.919 l 47.4347,21.974 v 42.8 c 0,30.139 -0.8385,43.638 -2.8347,45.634 -4.1153,4.115 -12.3314,3.334 -34.9619,-3.325 z"
         id="path12329"
         inkscape:connector-curvature="0" /><path
         style="opacity:1;vector-effect:none;fill:#ffb5a7;fill-opacity:1;stroke:none;stroke-width:8.92832851;stroke-linecap:butt;stroke-linejoin:round;stroke-miterlimit:4;stroke-dasharray:none;stroke-dashoffset:0;stroke-opacity:1"
         d="m 4752.1831,15885.887 c -2.4984,-5.484 -1.5605,-7.527 10.9572,-23.87 26.65,-34.794 78.175,-76.286 90.7979,-73.118 3.338,0.838 6.3247,1.779 6.6372,2.091 0.3124,0.313 2.0068,8.177 3.7652,17.477 l 3.1972,16.908 -54.5496,32.341 c -30.0023,17.787 -55.3423,32.751 -56.3112,33.253 -0.9689,0.503 -2.9912,-1.784 -4.4939,-5.082 z"
         id="path12331"
         inkscape:connector-curvature="0" /><path
         style="opacity:1;vector-effect:none;fill:#ffb5a7;fill-opacity:1;stroke:none;stroke-width:8.92832851;stroke-linecap:butt;stroke-linejoin:round;stroke-miterlimit:4;stroke-dasharray:none;stroke-dashoffset:0;stroke-opacity:1"
         d="m 4929.1121,15839.741 c -25.9633,-4.234 -41.0464,-7.788 -43.8636,-10.338 -2.786,-2.521 -5.3797,-10.574 -7.3868,-22.933 -2.7891,-17.175 -2.6893,-19.943 1.0156,-28.159 3.857,-8.553 5.4315,-9.549 25.6962,-16.245 34.0344,-11.247 59.918,-15.325 97.1807,-15.312 41.2401,0.02 59.4387,3.182 66.8448,11.63 2.984,3.404 5.0979,7.171 4.6977,8.372 -1.452,4.356 -97.0628,79.97 -100.787,79.708 -2.1051,-0.149 -21.634,-3.174 -43.3976,-6.723 z"
         id="path12333"
         inkscape:connector-curvature="0" /><path
         style="opacity:1;vector-effect:none;fill:#ffb5a7;fill-opacity:1;stroke:none;stroke-width:8.92832851;stroke-linecap:butt;stroke-linejoin:round;stroke-miterlimit:4;stroke-dasharray:none;stroke-dashoffset:0;stroke-opacity:1"
         d="m 5234.885,16196.54 c -18.9997,-14.087 -19.3422,-14.521 -19.25,-24.392 0.089,-9.581 1.9661,-12.195 40.2892,-56.114 39.8387,-45.656 50.4702,-54.668 48.2611,-40.91 -0.5879,3.661 -2.2184,13.929 -3.6233,22.818 -1.4049,8.889 -5.2559,24.834 -8.5577,35.435 -6.1856,19.857 -25.924,62.293 -33.4953,72.012 l -4.2801,5.494 z"
         id="path12335"
         inkscape:connector-curvature="0" /><path
         style="opacity:1;vector-effect:none;fill:#ff8b85;fill-opacity:1;stroke:none;stroke-width:8.92832851;stroke-linecap:butt;stroke-linejoin:round;stroke-miterlimit:4;stroke-dasharray:none;stroke-dashoffset:0;stroke-opacity:1"
         d="m 5272.0468,16027.12 c -13.3604,-15.123 -26.6305,-30.275 -29.489,-33.672 l -5.1974,-6.177 21.981,-30.141 21.981,-30.141 5.1247,13.614 c 11.2418,29.865 18.861,69.788 18.861,98.828 0,22.256 -4.0434,20.759 -33.2613,-12.311 z"
         id="path12337"
         inkscape:connector-curvature="0" /><path
         style="opacity:1;vector-effect:none;fill:#ff8b85;fill-opacity:1;stroke:none;stroke-width:8.92832851;stroke-linecap:butt;stroke-linejoin:round;stroke-miterlimit:4;stroke-dasharray:none;stroke-dashoffset:0;stroke-opacity:1"
         d="m 4896.7893,15917.37 c -1.6725,-36.398 -2.392,-66.827 -1.5988,-67.62 1.5726,-1.573 72.9673,8.643 76.7524,10.982 2.605,1.61 28.6481,58.608 28.5982,62.59 -0.027,2.179 -22.5218,15.73 -87.3935,52.648 l -13.3173,7.579 z"
         id="path12339"
         inkscape:connector-curvature="0" /><path
         style="opacity:1;vector-effect:none;fill:#ff8b85;fill-opacity:1;stroke:none;stroke-width:8.92832851;stroke-linecap:butt;stroke-linejoin:round;stroke-miterlimit:4;stroke-dasharray:none;stroke-dashoffset:0;stroke-opacity:1"
         d="m 4809.8471,15985.051 c -32.7904,-2.852 -60.1365,-5.702 -60.7689,-6.335 -0.6325,-0.632 1.7485,-17.504 5.2912,-37.493 l 6.4411,-36.343 56.6901,-33.713 c 43.8222,-26.06 57.3031,-33.062 59.3907,-30.845 1.6886,1.793 3.6935,23.227 5.3505,57.2 1.4574,29.883 3.2912,63.103 4.0751,73.822 l 1.4252,19.489 -9.138,-0.299 c -5.0259,-0.165 -35.9665,-2.632 -68.757,-5.483 z"
         id="path12341"
         inkscape:connector-curvature="0" /><path
         style="opacity:1;vector-effect:none;fill:#ff8b85;fill-opacity:1;stroke:none;stroke-width:8.92832851;stroke-linecap:butt;stroke-linejoin:round;stroke-miterlimit:4;stroke-dasharray:none;stroke-dashoffset:0;stroke-opacity:1"
         d="m 5109.5287,16317.288 -7.9775,-3.963 1.6433,-25.971 c 0.9038,-14.283 1.8361,-26.131 2.0718,-26.329 0.2357,-0.197 17.8548,-9.066 39.1536,-19.707 29.9232,-14.95 39.1771,-18.635 40.7133,-16.211 1.0935,1.724 2.0044,15.524 2.0243,30.665 l 0.036,27.529 -19.2402,12.342 c -15.7421,10.099 -47.2042,26.37 -49.8048,25.759 -0.3534,-0.08 -4.2323,-1.935 -8.62,-4.114 z"
         id="path12343"
         inkscape:connector-curvature="0" /><path
         style="opacity:1;vector-effect:none;fill:#ff8b85;fill-opacity:1;stroke:none;stroke-width:8.92832851;stroke-linecap:butt;stroke-linejoin:round;stroke-miterlimit:4;stroke-dasharray:none;stroke-dashoffset:0;stroke-opacity:1"
         d="m 5148.2632,15903.425 -21.2133,-16.229 -8.488,-53.894 -8.4881,-53.894 9.9235,-3.278 c 9.7902,-3.234 10.1611,-3.147 27.602,6.481 24.6575,13.611 47.2796,30.539 67.3513,50.398 9.4196,9.32 17.1252,17.549 17.1236,18.288 0,1.812 -58.8111,67.37 -60.9263,67.921 -0.9192,0.239 -11.2173,-6.868 -22.8847,-15.793 z"
         id="path12345"
         inkscape:connector-curvature="0" /><path
         style="opacity:1;vector-effect:none;fill:#ff5a5b;fill-opacity:1;stroke:none;stroke-width:8.92832851;stroke-linecap:butt;stroke-linejoin:round;stroke-miterlimit:4;stroke-dasharray:none;stroke-dashoffset:0;stroke-opacity:1"
         d="m 5164.6838,16127.581 c -23.3491,-13.121 -43.6712,-24.845 -45.1601,-26.055 -1.4889,-1.209 -8.0723,-11.176 -14.6297,-22.148 l -11.9225,-19.949 13.4485,-11.628 c 27.2774,-23.584 79.6731,-66.877 82.2301,-67.943 1.4506,-0.605 10.0157,2.199 19.0336,6.231 15.1719,6.784 18.6527,9.891 46.6164,41.615 27.1737,30.828 29.8802,34.686 26.8475,38.275 -5.686,6.728 -68.5132,79.392 -71.3487,82.52 -2.0782,2.293 -11.9726,-2.295 -45.1151,-20.918 z"
         id="path12347"
         inkscape:connector-curvature="0" /><path
         style="opacity:1;vector-effect:none;fill:#ff5a5b;fill-opacity:1;stroke:none;stroke-width:8.92832851;stroke-linecap:butt;stroke-linejoin:round;stroke-miterlimit:4;stroke-dasharray:none;stroke-dashoffset:0;stroke-opacity:1"
         d="m 4959.233,16061.254 c -9.0948,-2.535 -20.5839,-5.655 -25.5313,-6.933 -8.4597,-2.186 -9.6077,-3.644 -19.2817,-24.487 -5.6575,-12.19 -10.9342,-24.204 -11.7259,-26.699 -1.2298,-3.874 6.5142,-9.107 53.1313,-35.901 l 54.5709,-31.366 11.514,5.393 c 8.47,3.967 11.8437,7.017 12.7608,11.537 0.9995,4.925 6.503,38.243 13.9624,84.528 0.7579,4.703 -2.1369,6.105 -33.1057,16.036 -18.6649,5.985 -35.2463,11.246 -36.8475,11.692 -1.6012,0.445 -10.3525,-1.264 -19.4473,-3.8 z"
         id="path12349"
         inkscape:connector-curvature="0" /><path
         style="opacity:1;vector-effect:none;fill:#ff5a5b;fill-opacity:1;stroke:none;stroke-width:8.92832851;stroke-linecap:butt;stroke-linejoin:round;stroke-miterlimit:4;stroke-dasharray:none;stroke-dashoffset:0;stroke-opacity:1"
         d="m 4777.3682,16245.242 c -28.8775,-31.885 -50.9426,-69.625 -63.8021,-109.129 -7.857,-24.136 -8.6766,-34.926 -2.7456,-36.149 2.3938,-0.493 32.8382,12.103 67.6543,27.992 l 63.302,28.889 3.5405,17.793 3.5405,17.793 -26.06,33.261 c -14.333,18.293 -26.8334,34.133 -27.7788,35.2 -0.9454,1.067 -8.8883,-5.976 -17.6508,-15.65 z"
         id="path12351"
         inkscape:connector-curvature="0" /><path
         style="opacity:1;vector-effect:none;fill:#ff7e7d;fill-opacity:1;stroke:none;stroke-width:8.92832851;stroke-linecap:butt;stroke-linejoin:round;stroke-miterlimit:4;stroke-dasharray:none;stroke-dashoffset:0;stroke-opacity:1"
         d="m 4722.4138,15965.645 c -5.9019,-2.089 -10.0398,-5.046 -10.0398,-7.176 0,-4.698 20.3311,-52.457 24.8941,-58.477 3.0734,-4.055 3.921,-4.195 6.9599,-1.157 3.0388,3.039 2.7516,7.342 -2.3581,35.327 -3.2,17.527 -5.8306,32.664 -5.8456,33.638 -0.036,2.331 -1.6693,2.072 -13.6105,-2.155 z"
         id="path12353"
         inkscape:connector-curvature="0" /><path
         style="opacity:1;vector-effect:none;fill:#ff7e7d;fill-opacity:1;stroke:none;stroke-width:8.92832851;stroke-linecap:butt;stroke-linejoin:round;stroke-miterlimit:4;stroke-dasharray:none;stroke-dashoffset:0;stroke-opacity:1"
         d="m 5208.5317,15971.22 c -14.844,-7.339 -15.463,-8.014 -21.8228,-23.789 l -6.5454,-16.235 29.864,-33.373 c 16.4253,-18.355 30.5882,-33.669 31.4733,-34.03 1.7977,-0.735 17.1521,20.736 26.9653,37.707 l 6.3978,11.064 -24.1911,33.229 c -13.3051,18.275 -24.7924,33.172 -25.5273,33.104 -0.735,-0.07 -8.2112,-3.523 -16.6138,-7.677 z"
         id="path12355"
         inkscape:connector-curvature="0" /><path
         style="opacity:1;vector-effect:none;fill:#ffc2c1;fill-opacity:1;stroke:none;stroke-width:8.92832851;stroke-linecap:butt;stroke-linejoin:round;stroke-miterlimit:4;stroke-dasharray:none;stroke-dashoffset:0;stroke-opacity:1"
         d="m 5006.5051,16202.848 c -1.6484,-4.836 -20.1058,-116.351 -20.1058,-121.474 0,-4.018 5.3407,-6.382 36.0249,-15.946 l 36.0249,-11.229 10.7663,4.653 c 9.5395,4.124 12.1791,7.102 23.1631,26.134 l 12.3967,21.48 -38.0681,49.667 -38.0681,49.668 h -10.5637 c -6.3393,0 -10.9662,-1.181 -11.5702,-2.953 z"
         id="path12357"
         inkscape:connector-curvature="0" /><path
         style="opacity:1;vector-effect:none;fill:#ffc2c1;fill-opacity:1;stroke:none;stroke-width:8.92832851;stroke-linecap:butt;stroke-linejoin:round;stroke-miterlimit:4;stroke-dasharray:none;stroke-dashoffset:0;stroke-opacity:1"
         d="m 4909.625,16211.728 -47.2457,-22.081 -3.8668,-17.962 -3.8667,-17.963 32.9448,-43.057 c 18.1196,-23.682 33.828,-43.373 34.9076,-43.759 1.9703,-0.703 47.1515,10.23 48.4251,11.719 0.6266,0.732 22.5629,127.32 22.5629,130.204 0,1.631 -29.3997,22.668 -33.5255,23.99 -1.6995,0.544 -24.3505,-8.947 -50.3357,-21.091 z"
         id="path12359"
         inkscape:connector-curvature="0" /><path
         style="opacity:1;vector-effect:none;fill:#ffc2c1;fill-opacity:1;stroke:none;stroke-width:8.92832851;stroke-linecap:butt;stroke-linejoin:round;stroke-miterlimit:4;stroke-dasharray:none;stroke-dashoffset:0;stroke-opacity:1"
         d="m 5200.4894,16264.25 c -0.7809,-2.914 -1.4057,-15.928 -1.3885,-28.921 0.029,-22.27 0.3997,-24.054 6.4641,-31.167 l 6.4327,-7.544 17.0021,12.269 c 9.3511,6.748 17.0536,12.8 17.1168,13.45 0.1982,2.04 -29.039,34.69 -36.8009,41.097 l -7.4066,6.113 z"
         id="path12361"
         inkscape:connector-curvature="0" /><path
         style="opacity:1;vector-effect:none;fill:#ffc2c1;fill-opacity:1;stroke:none;stroke-width:8.92832851;stroke-linecap:butt;stroke-linejoin:round;stroke-miterlimit:4;stroke-dasharray:none;stroke-dashoffset:0;stroke-opacity:1"
         d="m 4701.863,16085.517 c -5.2775,-8.539 0.08,-104.15 6.0428,-107.835 2.5145,-1.554 28.0911,6.257 28.0911,8.579 0,2.721 -28.6925,95.251 -30.6293,98.776 -1.3214,2.405 -2.2373,2.531 -3.5046,0.48 z"
         id="path12363"
         inkscape:connector-curvature="0" /></g></g></g><text
   id="text5285"
   y="-7637.272"
   x="-183.12852"
   style="font-style:normal;font-weight:normal;font-size:1455.14001465px;line-height:1.25;font-family:sans-serif;letter-spacing:0px;word-spacing:0px;fill:#000000;fill-opacity:1;stroke:none;stroke-width:77.95392609;"
   xml:space="preserve"><tspan
     style="font-style:normal;font-variant:normal;font-weight:normal;font-stretch:normal;font-family:'Bookman Old Style';-inkscape-font-specification:'Bookman Old Style';fill:#000000;fill-opacity:1;stroke-width:77.95392609;"
     y="-7637.272"
     x="-183.12852"
     id="tspan5283"
     sodipodi:role="line">s</tspan></text>

<text
   xml:space="preserve"
   style="font-style:normal;font-variant:normal;font-weight:normal;font-stretch:normal;font-size:189.63331604px;line-height:1.25;font-family:sans-serif;-inkscape-font-specification:sans-serif;letter-spacing:0px;word-spacing:0px;fill:#000000;fill-opacity:1;stroke:none;stroke-width:10.15892887;"
   x="274.01398"
   y="-7401.5811"
   id="text1132"><tspan
     sodipodi:role="line"
     id="tspan1130"
     x="274.01398"
     y="-7401.5811"
     style="font-style:normal;font-variant:normal;font-weight:normal;font-stretch:normal;font-family:'Bookman Old Style';-inkscape-font-specification:'Bookman Old Style';fill:#000000;fill-opacity:1;stroke-width:10.15892887;">Single-cell atlases refreshed</tspan></text>

<text
   xml:space="preserve"
   style="font-style:normal;font-weight:normal;font-size:1406.51049805px;line-height:1.25;font-family:sans-serif;letter-spacing:0px;word-spacing:0px;fill:#000000;fill-opacity:1;stroke:none;stroke-width:75.34877014;"
   x="504.84583"
   y="-7631.8442"
   id="text1137"><tspan
     sodipodi:role="line"
     id="tspan1135"
     x="504.84583"
     y="-7631.8442"
     style="font-style:normal;font-variant:normal;font-weight:normal;font-stretch:normal;font-family:'Bookman Old Style';-inkscape-font-specification:'Bookman Old Style';fill:#000000;fill-opacity:1;stroke-width:75.34877014;">carf</tspan></text>

</g></g></g>

</g></g>

</g>



</g></g></svg>